<svg width="145" height="59" viewBox="0 0 145 59" fill="none" xmlns="http://www.w3.org/2000/svg">
<path fill-rule="evenodd" clip-rule="evenodd" d="M54.0553 8.69031C54.0553 8.69031 57.3022 8.6467 57.7427 8.66209C58.5965 8.68774 59.7325 8.37221 59.7894 7.73345C59.8735 6.79198 58.5297 6.65601 57.7972 6.53544C56.0648 6.25326 54.8324 6.40718 53.7558 6.42257C53.741 6.42257 50.6004 6.52262 48.7592 7.19729C47.6827 7.59235 46.7521 7.85145 47.1555 8.8827C47.4079 9.5266 49.3927 9.59073 50.1674 9.44964C51.2587 9.25211 52.9787 8.7724 52.9787 8.7724C52.9787 8.7724 53.1445 10.4501 53.1148 12.2176C53.0728 14.8137 53.0307 16.0168 53.0233 17.2738C53.0233 17.32 52.5184 23.4511 53.3697 24.2541C53.5182 24.3926 54.0181 24.4003 54.1765 24.2489C54.3993 24.036 54.6814 23.4768 54.7655 22.9842C54.9016 22.2069 54.8422 21.7631 54.7655 19.4338C54.6517 15.8501 54.0478 8.69031 54.0478 8.69031H54.0553Z" fill="#D74304"/>
<path fill-rule="evenodd" clip-rule="evenodd" d="M144.487 44.1076C144.479 44.0449 144.462 43.9372 144.449 43.8746C144.398 43.629 144.21 42.7822 144.182 42.6394C144.096 42.2034 144.094 42.2034 143.929 41.4192C143.891 41.2338 143.751 40.6099 143.703 40.437C143.67 40.3193 143.69 40.2516 143.65 40.2065C143.657 40.1063 143.665 40.0086 143.672 39.9109C143.736 38.8486 144.066 36.2002 144.071 36.1652C144.456 33.5494 144.591 31.6503 144.238 30.0593C144.109 29.483 143.952 28.7765 143.249 28.313C143.079 28.2002 142.754 28.1752 142.409 28.4858C141.792 29.0396 141.774 29.8087 141.8 30.4777C141.83 31.2394 141.838 32.6425 141.83 33.136C141.81 34.4088 141.79 34.6218 141.79 35.3283C141.79 35.7543 141.828 37.007 141.866 37.4806C141.706 36.4182 141.373 35.2131 140.14 34.5441C138.483 33.6472 136.938 34.6318 136.504 34.9525C134.327 36.5635 133.984 39.6378 134.426 41.5495C134.725 42.8423 135.674 44.05 137.032 44.6763C138.673 45.4355 140.498 45.0797 141.777 44.2729C142.102 44.0675 142.368 43.8696 142.589 43.6766C142.596 43.9397 142.604 44.1702 142.612 44.283C142.612 44.303 142.624 44.4258 142.67 44.536C142.716 44.6463 142.711 44.6488 142.787 44.7415C142.817 44.7791 142.848 44.8166 142.881 44.8492C142.985 44.9519 143.094 45.0071 143.117 45.0171C143.454 45.19 143.766 45.0998 143.822 45.0847C143.88 45.0672 144.213 44.9745 144.398 44.6212C144.525 44.3782 144.5 44.1452 144.495 44.1026L144.487 44.1076ZM136.128 38.598C136.511 36.2303 138.308 35.872 138.585 35.8495C139.173 35.8044 140.204 35.9798 140.967 36.8868C141.432 37.4405 141.645 37.9666 141.673 38.6581C141.853 43.2307 135.225 44.1928 136.128 38.5955V38.598Z" fill="#D74304"/>
<path fill-rule="evenodd" clip-rule="evenodd" d="M93.2083 43.715C93.1323 43.4701 92.8595 42.6258 92.8176 42.4836C92.6864 42.0475 92.6838 42.0498 92.4399 41.2662C92.3822 41.0796 92.1803 40.4592 92.1148 40.2866C92.0728 40.177 92.0544 40.0278 91.9967 39.9321C92.1725 38.2926 92.1174 36.2916 90.9688 35.2491C89.2983 33.7308 86.4766 35.2351 85.425 36.2053C85.168 36.4432 84.8192 36.821 85.0002 37.1521C85.0106 37.1731 85.0841 37.3084 85.2414 37.3411C85.2598 37.3457 85.362 37.3667 85.4669 37.2991C85.5745 37.2291 85.661 37.0029 85.9652 36.7393C86.4635 36.3079 87.6226 35.5779 88.9495 35.5942C89.8464 35.6036 90.3053 36.0117 90.5387 36.66C90.8062 37.4064 90.7563 38.4209 90.62 39.3164C90.4181 39.2395 90.1453 39.1392 89.8542 39.0412C89.6785 38.9829 89.1305 38.8453 88.9443 38.815C88.9023 38.808 88.5247 38.7404 88.113 38.7054C87.9556 38.6914 87.5072 38.6821 87.0535 38.7334C87.0037 38.7381 86.7808 38.7637 86.4425 38.8593C86.1697 38.9363 85.876 39.0739 85.7449 39.1485C84.7327 39.7246 84.2973 40.7018 84.4652 41.7536C84.6959 43.1762 86.078 44.6152 87.6488 45.014C88.9679 45.3499 90.4338 44.9371 91.2389 43.2392C91.2887 43.6753 91.3438 44.1325 91.3752 44.3097C91.3779 44.3307 91.4015 44.4543 91.4592 44.5616C91.5169 44.6689 91.5116 44.6735 91.5981 44.7598C91.6322 44.7948 91.6663 44.8298 91.7057 44.8624C91.8211 44.9557 91.9391 45.0024 91.96 45.0117C92.3193 45.154 92.6288 45.035 92.6812 45.014C92.7389 44.993 93.0667 44.8648 93.2214 44.4893C93.3289 44.2304 93.2765 43.9949 93.2686 43.9529C93.2555 43.8899 93.2267 43.7826 93.2083 43.7197V43.715ZM90.2188 41.1286C90.0719 41.665 89.9329 42.1547 89.6681 42.5745C89.2773 43.1879 88.8525 43.2999 88.4565 43.2462C87.6567 43.1413 86.7834 42.332 86.5684 41.6417C86.4687 41.3245 86.5448 41.2125 86.5526 41.1962C86.5526 41.1962 86.5946 41.1076 86.7336 41.0213C86.8516 40.9467 86.9565 40.9023 86.9775 40.8953C87.1715 40.8137 87.3026 40.7764 87.3315 40.7671C87.4652 40.7274 87.6672 40.6551 88.0736 40.5898C88.2388 40.5618 88.4224 40.5175 88.8289 40.4709C89.0754 40.4429 89.2117 40.4172 89.5972 40.3846C89.7389 40.3729 89.9749 40.3379 90.4312 40.303C90.3525 40.6528 90.2738 40.9397 90.224 41.1286H90.2188Z" fill="#D74304"/>
<path fill-rule="evenodd" clip-rule="evenodd" d="M69.4728 18.347C69.3036 18.2843 68.7715 18.1364 68.5925 18.1013C68.5532 18.0938 68.1854 18.0211 67.7881 17.9835C67.6361 17.9684 67.1996 17.9584 66.7631 18.0136C66.714 18.0186 66.4982 18.0462 66.1721 18.149C65.9072 18.2317 65.6228 18.3821 65.4953 18.4624C64.5143 19.0842 64.0926 20.1397 64.2569 21.2755C64.48 22.81 65.819 24.367 67.3418 24.7983C68.6195 25.1593 70.0393 24.7156 70.8191 22.8802C70.8682 23.3516 70.9197 23.8455 70.9516 24.0361C70.9565 24.0586 70.9761 24.1915 71.0325 24.3094C71.0889 24.4247 71.084 24.4297 71.1674 24.525C71.2017 24.5626 71.2336 24.6002 71.2704 24.6353C71.3832 24.7381 71.496 24.7883 71.518 24.7958C71.8663 24.9512 72.1654 24.8209 72.2169 24.7983C72.2709 24.7757 72.5897 24.6378 72.7393 24.2316C72.8423 23.9533 72.7932 23.6976 72.7834 23.6525C72.7711 23.5848 72.7442 23.4694 72.7246 23.4017C72.651 23.1385 72.3861 22.2258 72.3445 22.0729C72.2169 21.604 72.2145 21.604 71.9791 20.759C71.9227 20.5585 71.7265 19.889 71.6627 19.7035C71.621 19.5831 71.6039 19.4252 71.5475 19.3199C71.7167 17.5497 71.6627 15.3884 70.5518 14.2627C68.9333 12.6229 66.1991 14.2476 65.1838 15.2931C64.9361 15.5489 64.5977 15.9576 64.7718 16.3136C64.7841 16.3362 64.8552 16.4816 65.0048 16.5167C65.022 16.5217 65.1225 16.5443 65.2231 16.4716C65.3261 16.3964 65.4119 16.1506 65.7062 15.8673C66.1893 15.401 67.3124 14.6137 68.5949 14.6287C69.463 14.6387 69.9093 15.08 70.135 15.7796C70.3949 16.5869 70.3459 17.6801 70.2134 18.6479C70.0173 18.5627 69.7549 18.4548 69.4728 18.352V18.347ZM69.8284 20.6061C69.6862 21.1853 69.5513 21.7143 69.2938 22.1681C68.9162 22.8301 68.5042 22.9504 68.1192 22.8928C67.3443 22.7774 66.4982 21.9049 66.2898 21.1602C66.1942 20.8192 66.2653 20.6989 66.2751 20.6788C66.2751 20.6788 66.3168 20.5835 66.4492 20.4908C66.562 20.4105 66.665 20.3629 66.6846 20.3554C66.8734 20.2676 67.001 20.225 67.0279 20.2175C67.1579 20.1748 67.3541 20.0971 67.7465 20.0244C67.9083 19.9943 68.0824 19.9467 68.4772 19.8965C68.7175 19.8664 68.8475 19.8389 69.2203 19.8038C69.3551 19.7912 69.5881 19.7511 70.0271 19.716C69.951 20.0921 69.875 20.4055 69.826 20.6086L69.8284 20.6061Z" fill="#D74304"/>
<path fill-rule="evenodd" clip-rule="evenodd" d="M77.3264 24.8475C77.8989 24.6379 78.1016 24.0723 78.2054 23.739C78.4208 23.0497 78.5778 22.0144 78.8311 20.3505C78.9122 19.8202 79.1858 17.8482 79.4847 16.4898C79.8089 15.0253 80.0673 14.7021 80.1484 14.6011C80.1585 14.6112 80.1712 14.6213 80.1864 14.6364C80.7361 15.1945 81.3567 17.1917 81.3694 17.2245C81.3846 17.2599 81.3947 17.2978 81.4175 17.3281C81.4859 17.4215 81.5872 17.4366 81.605 17.4417C81.7266 17.4594 81.8076 17.4013 81.8228 17.3887C81.9165 17.3205 81.9318 17.222 81.9343 17.2043C81.9419 17.1488 81.9394 17.1463 81.9292 17.0907C81.4606 14.6415 80.9742 13.831 80.384 13.6189C79.8013 13.4068 79.358 13.8789 79.3327 13.9042C78.6488 14.5657 78.0611 16.3736 77.5645 18.1689C77.4277 18.6613 77.3062 19.1233 77.1947 19.5526C77.1694 19.4491 77.139 19.3329 77.101 19.1966C77.0858 19.1385 77.0326 18.939 76.8781 18.4921C76.7311 18.0628 76.6095 17.7674 76.607 17.7649C76.5082 17.5402 76.3208 17.1311 76.0649 16.6842C75.9104 16.4165 75.6824 16.0959 75.5329 15.904C75.3936 15.7247 75.2822 15.601 75.2796 15.601C75.0567 15.3662 74.5577 14.8687 73.8889 14.596C73.8661 14.5859 73.704 14.5203 73.5824 14.4925C73.4557 14.4622 72.9846 14.3536 72.5108 14.5127C72.4095 14.5455 72.369 14.5809 72.3589 14.591C72.3462 14.6011 72.2677 14.6667 72.2525 14.7778C72.2347 14.899 72.3183 15.0379 72.331 15.0581C72.3411 15.0733 72.4171 15.202 72.521 15.1667C72.5666 15.1515 72.6096 15.0935 72.6147 15.0884C72.6071 15.0985 72.868 15.0985 73.1821 15.3384C73.3139 15.4369 73.6634 15.6843 73.9877 16.4064C74.0612 16.568 74.1827 16.8079 74.3221 17.2624C74.3905 17.4821 74.4969 17.78 74.6159 18.333C74.6514 18.4971 74.7451 18.8355 74.8566 19.4718C74.9072 19.7622 74.9123 19.7596 74.968 20.0828C75.0263 20.4187 75.0314 20.4161 75.0846 20.752C75.1175 20.9514 75.12 20.9514 75.153 21.1509C75.2467 21.6938 75.381 22.6154 75.4063 22.7442C75.5076 23.2997 75.6191 23.7819 75.7786 24.1178C76.146 24.8929 76.8451 25.0192 77.3264 24.845V24.8475Z" fill="#D74304"/>
<path fill-rule="evenodd" clip-rule="evenodd" d="M91.5491 21.6081C92.1501 22.9739 92.8506 23.706 93.3245 24.108C93.6088 24.3503 93.803 24.4701 93.9903 24.5739C94.1059 24.6378 94.2353 24.7124 94.5127 24.8082C94.7139 24.8801 95.2941 24.952 95.7611 24.8907C96.1564 24.8401 97.525 24.3902 97.696 24.3024C97.9295 24.1826 98.7594 23.8045 98.8219 23.5436C98.838 23.477 98.7872 23.3386 98.6207 23.3413C97.7145 23.3492 97.3678 23.28 97.3192 23.2747C96.5864 23.2348 96.1656 23.0484 95.9738 22.9632C95.9483 22.9526 95.6987 22.8887 95.3773 22.6943C95.2756 22.6331 95.2409 22.6251 95.0861 22.5239C94.9682 22.4467 94.9381 22.4361 94.8017 22.3322C94.7 22.255 94.2677 21.9755 93.81 21.2647C93.239 20.3754 92.9523 19.2866 92.9176 19.1614C92.8991 19.0922 92.7466 18.5704 92.6194 17.7238C93.1396 17.3404 93.7822 16.8452 94.448 16.2702C97.34 13.7756 98.1075 12.0477 98.378 11.1692C99.0577 8.96742 98.4867 7.28484 96.843 6.62459C94.8919 5.84186 92.9223 6.82426 91.66 9.81936C90.8879 11.6484 90.5319 13.8661 90.5203 15.9507C90.518 16.5177 90.5273 17.8862 90.8717 19.4729C90.911 19.6486 91.133 20.6789 91.5444 21.6108L91.5491 21.6081ZM93.6481 9.64898C94.4156 8.24061 95.2317 8.08353 95.5114 8.04626C96.0154 7.97704 96.4893 8.07022 96.8846 8.5095C97.3238 8.99671 97.4232 9.88592 97.3978 10.3039C97.377 10.6553 97.3123 10.8577 97.2822 10.9988C97.2314 11.2277 97.0557 11.7336 96.9655 11.9306C96.0801 13.8474 94.0319 15.562 92.52 16.8745C92.4784 16.4352 92.453 15.9454 92.4507 15.4129C92.446 13.3443 92.8413 11.1266 93.6458 9.64898H93.6481Z" fill="#D74304"/>
<path fill-rule="evenodd" clip-rule="evenodd" d="M65.791 43.5812C64.6758 43.7032 64.5486 43.525 63.9604 43.1955C63.1992 42.7658 62.2597 41.2328 62.2648 40.7251C62.2648 40.7251 63.963 39.4216 64.765 38.5061C67.647 35.218 67.9347 33.0991 68.0289 32.1764C68.2529 29.9941 68.0009 28.5709 66.1958 27.8923C64.3474 27.1966 62.4023 28.2194 61.0911 31.0682C60.2917 32.8087 59.8792 34.8958 59.8054 36.8462C59.785 37.3759 59.7545 38.6575 60.0396 40.1295C60.0702 40.293 60.2561 41.2475 60.6252 42.1068C61.165 43.3615 61.585 43.8814 62.2648 44.3818C62.9446 44.8823 63.9095 45.1727 64.6962 45.1142C65.4855 45.0556 66.4478 44.4673 66.6362 44.1499C66.8679 43.7667 66.3002 43.525 65.791 43.5812ZM61.6843 36.275C61.7454 34.3392 62.1935 32.2496 63.0133 30.8411C63.7975 29.4961 64.9686 29.4595 65.4626 29.667C66.1882 29.9721 66.6184 32.0934 66.1627 33.7387C65.5797 35.838 62.6238 39.7096 62.0255 39.6413C61.7836 39.2409 61.6589 37.1367 61.6869 36.275H61.6843Z" fill="#D74304"/>
<path fill-rule="evenodd" clip-rule="evenodd" d="M99.3509 27.8923C97.4409 27.1966 95.4309 28.2194 94.076 31.0682C93.25 32.8087 92.8238 34.8958 92.7475 36.8462C92.7264 37.3759 92.6949 38.6575 92.9895 40.1295C93.0211 40.293 93.2131 41.2475 93.5946 42.1068C94.1523 43.3615 94.5864 43.8814 95.2888 44.3818C95.9913 44.8823 96.9884 45.1727 97.8013 45.1142C98.6169 45.0556 99.6113 44.4673 99.806 44.1499C100.045 43.7667 99.4587 43.525 98.9326 43.5812C97.7803 43.7032 97.6487 43.525 97.041 43.1955C96.2544 42.7658 95.2836 41.2328 95.2888 40.7251C95.2888 40.7251 97.0436 39.4216 97.8723 38.5061C100.85 35.218 101.148 33.0991 101.245 32.1764C101.477 29.9941 101.216 28.5709 99.3509 27.8923ZM99.3167 33.7363C98.7142 35.8356 95.6598 39.7072 95.0415 39.6388C94.7916 39.2385 94.6627 37.1343 94.6917 36.2726C94.7548 34.3368 95.2178 32.2472 96.0649 30.8387C96.8752 29.4937 98.0854 29.4571 98.5958 29.6645C99.3456 29.9697 99.7902 32.091 99.3193 33.7363H99.3167Z" fill="#D74304"/>
<path fill-rule="evenodd" clip-rule="evenodd" d="M84.3356 42.8979C84.2598 42.8422 84.0894 42.8329 83.9664 42.8584C83.254 42.9976 81.8506 43.4593 80.8543 43.0997C76.4452 41.515 78.5965 35.4199 82.2742 36.522C82.5937 36.6171 82.8754 36.7679 83.1641 36.8537C83.4694 36.9419 83.8954 37.109 84.1131 36.8329C84.4066 36.4616 83.3085 35.2737 82.5724 34.9697C81.7654 34.638 80.8188 34.4059 79.3846 34.8398C78.5989 35.0788 77.8084 35.6844 77.115 36.9628C75.8417 39.3085 76.2985 42.9211 78.2936 44.3758C80.0993 45.6937 82.3097 44.9234 82.8517 44.631C83.4434 44.3132 83.8575 43.9373 84.1486 43.6357C84.3356 43.4431 84.3876 43.3271 84.416 43.1948C84.4539 43.0185 84.4113 42.9559 84.3356 42.8979Z" fill="#D74304"/>
<path fill-rule="evenodd" clip-rule="evenodd" d="M112.547 44.3308C113.451 44.0436 114.583 43.0821 114.677 42.9447C114.756 42.8324 114.722 42.7399 114.714 42.725C114.682 42.6525 114.622 42.6326 114.614 42.6276C114.593 42.6201 114.57 42.6176 114.546 42.6176C114.473 42.6226 114.429 42.67 114.421 42.6775C113.731 43.3418 113.07 43.5241 111.985 43.9087C111.606 43.669 109.617 43.4517 109.256 43.3518C109.196 43.0596 109.243 42.3154 109.243 42.3154C109.285 42.4278 113.556 39.5334 115.276 36.1395C116.313 34.0917 116.779 31.7192 115.44 29.8412C113.83 27.5836 110.978 27.8983 109.324 29.599C108.271 30.6803 107.863 32.1937 107.625 33.1577C106.896 36.127 106.875 40.345 107.241 44.3332C107.071 44.4007 106.979 44.4556 106.919 44.4931C106.438 44.8027 106.6 45.2298 106.608 45.2548C106.726 45.5919 107.081 45.6768 107.262 45.7118C107.301 45.7193 107.34 45.7268 107.384 45.7318C107.426 46.0939 107.471 46.451 107.518 46.8031C107.693 48.1317 107.865 49.0982 107.865 49.1007C108.477 52.2598 109.094 54.0629 109.285 54.6123C110.427 57.8963 111.462 58.6979 112.291 58.9052C112.544 58.9676 114.204 59.3722 115.171 56.6626C116.266 53.5984 116.039 47.6722 113.443 45.0375C113.352 44.9451 112.641 44.4057 112.549 44.3258L112.547 44.3308ZM109.826 34.2915C109.896 33.9019 110.043 33.0802 110.333 32.366C110.605 31.6967 111.114 31.2622 111.195 31.1973C111.823 30.6803 112.492 30.6853 112.644 30.6903C113.561 30.7128 114.011 31.3196 114.063 31.4095C115.064 33.1327 112.871 37.9176 110.976 39.7881C110.474 40.2826 109.656 40.9269 109.253 41.2291C109.232 41.0642 109.389 36.7014 109.828 34.2915H109.826ZM112.787 56.745C112.787 56.745 112.785 56.745 112.782 56.7425H112.787V56.745ZM112.79 56.7525C112.79 56.7525 112.793 56.745 112.795 56.7425C112.785 56.73 112.693 56.6601 112.555 56.4603C111.849 55.4314 111.086 53.2238 110.973 52.8991C110.375 51.1934 109.985 49.1981 109.936 48.9408C109.591 47.1577 109.363 45.1923 109.376 45.1773C111.739 45.3796 113.441 47.42 113.864 48.8909C115.197 53.5235 113.417 56.8974 112.79 56.755V56.7525Z" fill="#D74304"/>
<path fill-rule="evenodd" clip-rule="evenodd" d="M72.849 34.2969C71.2776 33.3666 69.9324 33.7906 68.8451 34.6536C66.7654 36.3021 66.4564 39.512 66.8748 41.4948C67.157 42.8341 68.0594 44.0886 69.3462 44.7371C70.903 45.5227 73.1652 45.0763 74.3377 43.6571C76.1231 41.4998 75.712 37.7562 74.7317 36.2174C74.7317 36.2174 74.019 34.9878 72.849 34.2944V34.2969ZM68.4949 38.4346C68.8913 35.9829 70.5624 35.6063 70.8252 35.5839C71.3822 35.5365 72.3601 35.7185 73.0849 36.6613C73.5252 37.2349 73.7344 37.7811 73.7539 38.4994C73.8682 42.5597 67.6094 43.914 68.4949 38.4346Z" fill="#D74304"/>
<path fill-rule="evenodd" clip-rule="evenodd" d="M121.377 35.0886C119.856 34.2268 118.552 34.6201 117.5 35.4188C115.483 36.9482 115.184 39.9221 115.591 41.7599C115.866 43.0028 116.739 44.1633 117.985 44.7653C119.495 45.4936 121.683 45.0785 122.819 43.7651C124.549 41.7647 124.152 38.2931 123.202 36.8681C123.202 36.8681 122.513 35.7295 121.377 35.0862V35.0886ZM117.162 38.9243C117.545 36.652 119.167 36.3024 119.42 36.283C119.961 36.2393 120.908 36.4068 121.609 37.2808C122.037 37.8125 122.238 38.3198 122.257 38.985C122.37 42.7479 116.306 44.0055 117.162 38.9243Z" fill="#D74304"/>
<path fill-rule="evenodd" clip-rule="evenodd" d="M130.81 35.8807C129.142 35.0869 127.712 35.4492 126.558 36.1848C124.346 37.5935 124.018 40.3326 124.464 42.0253C124.766 43.1701 125.724 44.2389 127.09 44.7935C128.746 45.4643 131.146 45.0819 132.392 43.8722C134.289 42.0298 133.854 38.8323 132.812 37.5197C132.812 37.5197 132.057 36.471 130.81 35.8785V35.8807ZM126.185 39.4136C126.605 37.3207 128.384 36.9987 128.662 36.9808C129.255 36.9406 130.294 37.0949 131.062 37.8998C131.532 38.3895 131.752 38.8568 131.773 39.4695C131.896 42.9353 125.246 44.0936 126.185 39.4136Z" fill="#D74304"/>
<path fill-rule="evenodd" clip-rule="evenodd" d="M43.2074 30.3026C36.6517 27.2285 29.4187 25.9794 22.2034 25.9944C22.211 25.8242 22.2211 25.6565 22.2363 25.4937C22.2363 23.809 25.3423 19.9639 27.6092 19.4783C30.5939 18.91 33.8212 23.4886 34.6956 22.8177C35.4033 22.2069 34.8852 20.9953 34.6956 20.014C34.0967 17.786 34.4101 14.4316 34.635 13.3902C34.7108 12.8695 35.0065 11.345 36.1235 9.29981C36.7149 8.19084 39.2245 5.45722 39.6212 4.8364C41.0138 2.65602 40.9607 1.512 40.9607 1.512C40.9607 0.372994 40.4375 0 39.6212 0C36.72 0 33.7909 1.57208 31.7312 2.82624C31.208 3.14416 27.1569 5.79267 24.574 6.69636C22.158 7.50493 17.2955 7.9355 15.8044 8.77912C14.3336 9.34237 13.4971 10.3412 14.4347 11.1598C15.6857 12.2562 19.6812 13.0373 20.2928 14.5067C20.6062 14.9022 20.351 16.2966 20.2928 17.02C20.1362 18.2216 19.6787 19.5709 19.3729 20.8351C18.9408 22.5323 18.6527 24.3222 18.5895 26.1096C17.1995 26.1897 15.812 26.3148 14.4347 26.4826C10.2925 27.0758 5.81171 28.2424 2.63496 31.2088L2.64001 31.2013L2.63496 31.1963C-1.18372 34.8211 -0.650469 39.6525 2.93822 43.2222C4.96255 45.2799 7.4898 46.6668 10.1131 47.613L10.52 46.5491C5.03584 44.4739 -1.96211 38.0328 3.94154 32.5906C7.82087 29.3363 13.4263 28.5753 18.6527 28.4652C18.7361 29.3839 18.8978 30.2926 19.1404 31.1863C15.1448 31.4867 11.2352 32.3078 8.21765 33.7422C5.07375 35.2091 3.65091 38.511 6.52945 41.172C11.6977 45.5453 24.7383 46.2062 31.4279 46.1035C36.0983 45.9308 44.2133 45.6029 47.7186 42.2459C52.5557 37.1717 48.2291 32.6282 43.2074 30.3051V30.3026ZM18.0992 10.3387C19.6509 10.3387 23.3811 9.96569 23.3811 9.96569C24.9101 9.79546 27.4146 8.7666 29.0472 7.88293C29.9899 7.33971 32.2139 6.09807 32.9721 5.64998C33.7277 5.20189 35.3729 4.3833 37.5716 3.51465C37.4251 3.64983 37.2861 3.78501 37.1496 3.9252C35.7369 5.40966 34.2155 6.74893 33.2147 8.62141C32.4868 10.0308 32.1886 10.8494 31.8222 12.8946C31.4532 14.9348 32.1836 17.9488 32.7673 20.0165C32.6536 19.9239 31.3116 18.6171 31.1903 18.527C29.1054 16.7797 27.2074 16.9925 25.0896 18.8625C24.4375 19.4207 23.879 20.0641 23.3811 20.7475V20.74C23.4696 20.4971 23.5656 20.2543 23.6591 20.014C24.2556 18.4194 24.8849 16.8949 24.569 14.9373C24.2177 12.7744 19.9972 11.2699 18.0992 10.3412V10.3387ZM45.5274 40.1281C44.835 40.779 43.953 41.1269 43.0153 41.4524C39.2978 42.6164 35.287 42.8442 31.3597 42.9268C28.6909 42.9569 26.012 42.8492 23.3533 42.6089C19.0671 42.1583 12.0919 41.3998 8.73573 38.7613C8.43246 38.4759 8.14688 38.1655 8.28588 37.7975C8.87473 36.8688 10.2925 36.3857 11.3742 35.9776L11.3792 35.9726C14.2098 35.0965 17.3259 34.5808 20.4799 34.4131C22.8757 38.5035 27.8923 40.2933 32.4363 40.048C34.314 39.9279 38.2085 39.5749 38.7746 37.2994C38.9237 36.8237 38.7114 36.0152 38.4056 35.6847C38.1934 35.4194 37.9634 35.1665 37.7283 34.9362C35.9795 33.2966 33.6443 32.4805 31.4582 31.9473C28.9259 31.374 25.9109 31.0661 22.8049 31.0586C22.5219 30.235 22.3424 29.3639 22.2515 28.4777C22.4031 28.4802 22.5547 28.4827 22.7064 28.4852C28.0237 28.6304 33.341 29.4415 38.3323 31.3014C41.0694 32.3478 46.0809 34.373 46.786 37.3394C46.9629 38.3858 46.273 39.3571 45.5325 40.1281H45.5274ZM24.9986 34.4206C26.9521 34.5307 28.8678 34.781 30.6849 35.169H30.6874C31.9106 35.4895 33.1414 35.8399 34.1952 36.4457C31.2965 37.0365 27.8114 36.4457 25.5925 34.8837C25.3827 34.736 25.1856 34.5808 24.9986 34.4206Z" fill="#D74304"/>
<path fill-rule="evenodd" clip-rule="evenodd" d="M82.7483 23.1769C84.1113 24.936 86.5132 24.3079 87.6956 23.9638C87.75 23.9469 90.4166 22.9771 90.9657 22.6956C91.1092 22.6234 91.1018 22.4188 90.9905 22.2792C90.9212 22.1926 90.8272 22.183 90.8099 22.1806C90.7753 22.1758 90.6986 22.1926 90.57 22.2311C86.4736 23.4945 84.554 22.9194 84.0346 21.9014C83.8639 21.5645 83.8169 21.1241 83.8763 20.638C84.0173 20.6885 84.1756 20.7439 84.3438 20.7968C84.4007 20.8161 84.7792 20.9364 85.0661 21.0038C86.3573 21.3118 87.5768 21.0928 88.4204 20.7102C88.5465 20.6524 89.4667 20.2192 89.7215 19.0593C89.7611 18.874 89.8229 18.5275 89.8328 17.998C89.8452 17.2785 89.7116 16.6239 89.6052 16.2653C89.4444 15.7311 89.3232 15.4519 89.1328 15.1319C88.9596 14.8431 88.6529 14.535 88.4575 14.3401C88.4129 14.2944 88.1928 14.0754 87.8366 13.8781C86.8595 13.3438 85.5163 13.3968 84.1855 14.7877C84.0816 14.896 83.5522 15.4495 83.0674 16.3375C81.8454 18.5708 81.4373 21.4827 82.7483 23.1745V23.1769ZM86.6171 15.6228C87.3245 15.5578 88.0642 15.9501 88.3758 17.0739C88.7271 18.3325 88.1977 19.0954 87.745 19.3192C86.4118 19.9786 84.4279 19.4083 84.089 19.3505C84.4131 16.9584 85.6227 15.7142 86.6146 15.6228H86.6171ZM82.491 19.8101C82.491 19.8101 82.4886 19.8101 82.4861 19.8101C82.4861 19.8101 82.4886 19.8101 82.491 19.8101Z" fill="#D74304"/>
<path fill-rule="evenodd" clip-rule="evenodd" d="M58.1939 20.4523C58.1939 20.4523 60.4486 23.4488 62.7252 24.8035C62.9921 24.9632 63.1766 24.9133 63.264 24.8759C63.4411 24.801 63.4314 24.3544 63.2518 24.0226C62.9897 23.5361 62.4315 22.9822 61.9097 22.4558C61.1209 21.6599 59.2327 19.6639 59.2861 19.7088C59.6356 20.0107 62.446 19.9808 62.9217 18.3541C63.6984 15.7144 60.5408 12.1366 57.6017 14.1576C56.3445 15.0208 56.1139 16.64 56.2159 18.636C56.2474 19.2323 56.1819 23.4288 56.7474 24.2646C57.3347 25.1328 58.2691 24.9108 58.6089 24.2222C58.8079 23.823 58.7958 23.4637 58.4803 22.1664C58.4221 21.9218 58.2522 20.6943 58.1939 20.4473V20.4523ZM57.8832 18.2792C57.6697 15.9165 58.6016 15.4998 59.3273 15.415C60.252 15.3077 61.9752 16.5053 61.5335 17.8251C61.1573 18.9504 57.9342 18.5562 57.91 18.5636C57.8954 18.4339 57.8881 18.3441 57.8808 18.2792H57.8832Z" fill="#D74304"/>
<path fill-rule="evenodd" clip-rule="evenodd" d="M54.0553 8.69031C54.0553 8.69031 57.3022 8.6467 57.7427 8.66209C58.5965 8.68774 59.7325 8.37221 59.7894 7.73345C59.8735 6.79198 58.5297 6.65601 57.7972 6.53544C56.0648 6.25326 54.8324 6.40718 53.7558 6.42257C53.741 6.42257 50.6004 6.52262 48.7592 7.19729C47.6827 7.59235 46.7521 7.85145 47.1555 8.8827C47.4079 9.5266 49.3927 9.59073 50.1674 9.44964C51.2587 9.25211 52.9787 8.7724 52.9787 8.7724C52.9787 8.7724 53.1445 10.4501 53.1148 12.2176C53.0728 14.8137 53.0307 16.0168 53.0233 17.2738C53.0233 17.32 52.5184 23.4511 53.3697 24.2541C53.5182 24.3926 54.0181 24.4003 54.1765 24.2489C54.3993 24.036 54.6814 23.4768 54.7655 22.9842C54.9016 22.2069 54.8422 21.7631 54.7655 19.4338C54.6517 15.8501 54.0478 8.69031 54.0478 8.69031H54.0553Z" fill="#D74304"/>
<path fill-rule="evenodd" clip-rule="evenodd" d="M144.487 44.1076C144.479 44.0449 144.462 43.9372 144.449 43.8746C144.398 43.629 144.21 42.7822 144.182 42.6394C144.096 42.2034 144.094 42.2034 143.929 41.4192C143.891 41.2338 143.751 40.6099 143.703 40.437C143.67 40.3193 143.69 40.2516 143.65 40.2065C143.657 40.1063 143.665 40.0086 143.672 39.9109C143.736 38.8486 144.066 36.2002 144.071 36.1652C144.456 33.5494 144.591 31.6503 144.238 30.0593C144.109 29.483 143.952 28.7765 143.249 28.313C143.079 28.2002 142.754 28.1752 142.409 28.4858C141.792 29.0396 141.774 29.8087 141.8 30.4777C141.83 31.2394 141.838 32.6425 141.83 33.136C141.81 34.4088 141.79 34.6218 141.79 35.3283C141.79 35.7543 141.828 37.007 141.866 37.4806C141.706 36.4182 141.373 35.2131 140.14 34.5441C138.483 33.6472 136.938 34.6318 136.504 34.9525C134.327 36.5635 133.984 39.6378 134.426 41.5495C134.725 42.8423 135.674 44.05 137.032 44.6763C138.673 45.4355 140.498 45.0797 141.777 44.2729C142.102 44.0675 142.368 43.8696 142.589 43.6766C142.596 43.9397 142.604 44.1702 142.612 44.283C142.612 44.303 142.624 44.4258 142.67 44.536C142.716 44.6463 142.711 44.6488 142.787 44.7415C142.817 44.7791 142.848 44.8166 142.881 44.8492C142.985 44.9519 143.094 45.0071 143.117 45.0171C143.454 45.19 143.766 45.0998 143.822 45.0847C143.88 45.0672 144.213 44.9745 144.398 44.6212C144.525 44.3782 144.5 44.1452 144.495 44.1026L144.487 44.1076ZM136.128 38.598C136.511 36.2303 138.308 35.872 138.585 35.8495C139.173 35.8044 140.204 35.9798 140.967 36.8868C141.432 37.4405 141.645 37.9666 141.673 38.6581C141.853 43.2307 135.225 44.1928 136.128 38.5955V38.598Z" fill="#D74304"/>
<path fill-rule="evenodd" clip-rule="evenodd" d="M93.2083 43.715C93.1323 43.4701 92.8595 42.6258 92.8176 42.4836C92.6864 42.0475 92.6838 42.0498 92.4399 41.2662C92.3822 41.0796 92.1803 40.4592 92.1148 40.2866C92.0728 40.177 92.0544 40.0278 91.9967 39.9321C92.1725 38.2926 92.1174 36.2916 90.9688 35.2491C89.2983 33.7308 86.4766 35.2351 85.425 36.2053C85.168 36.4432 84.8192 36.821 85.0002 37.1521C85.0106 37.1731 85.0841 37.3084 85.2414 37.3411C85.2598 37.3457 85.362 37.3667 85.4669 37.2991C85.5745 37.2291 85.661 37.0029 85.9652 36.7393C86.4635 36.3079 87.6226 35.5779 88.9495 35.5942C89.8464 35.6036 90.3053 36.0117 90.5387 36.66C90.8062 37.4064 90.7563 38.4209 90.62 39.3164C90.4181 39.2395 90.1453 39.1392 89.8542 39.0412C89.6785 38.9829 89.1305 38.8453 88.9443 38.815C88.9023 38.808 88.5247 38.7404 88.113 38.7054C87.9556 38.6914 87.5072 38.6821 87.0535 38.7334C87.0037 38.7381 86.7808 38.7637 86.4425 38.8593C86.1697 38.9363 85.876 39.0739 85.7449 39.1485C84.7327 39.7246 84.2973 40.7018 84.4652 41.7536C84.6959 43.1762 86.078 44.6152 87.6488 45.014C88.9679 45.3499 90.4338 44.9371 91.2389 43.2392C91.2887 43.6753 91.3438 44.1325 91.3752 44.3097C91.3779 44.3307 91.4015 44.4543 91.4592 44.5616C91.5169 44.6689 91.5116 44.6735 91.5981 44.7598C91.6322 44.7948 91.6663 44.8298 91.7057 44.8624C91.8211 44.9557 91.9391 45.0024 91.96 45.0117C92.3193 45.154 92.6288 45.035 92.6812 45.014C92.7389 44.993 93.0667 44.8648 93.2214 44.4893C93.3289 44.2304 93.2765 43.9949 93.2686 43.9529C93.2555 43.8899 93.2267 43.7826 93.2083 43.7197V43.715ZM90.2188 41.1286C90.0719 41.665 89.9329 42.1547 89.6681 42.5745C89.2773 43.1879 88.8525 43.2999 88.4565 43.2462C87.6567 43.1413 86.7834 42.332 86.5684 41.6417C86.4687 41.3245 86.5448 41.2125 86.5526 41.1962C86.5526 41.1962 86.5946 41.1076 86.7336 41.0213C86.8516 40.9467 86.9565 40.9023 86.9775 40.8953C87.1715 40.8137 87.3026 40.7764 87.3315 40.7671C87.4652 40.7274 87.6672 40.6551 88.0736 40.5898C88.2388 40.5618 88.4224 40.5175 88.8289 40.4709C89.0754 40.4429 89.2117 40.4172 89.5972 40.3846C89.7389 40.3729 89.9749 40.3379 90.4312 40.303C90.3525 40.6528 90.2738 40.9397 90.224 41.1286H90.2188Z" fill="#D74304"/>
<path fill-rule="evenodd" clip-rule="evenodd" d="M69.4728 18.347C69.3036 18.2843 68.7715 18.1364 68.5925 18.1013C68.5532 18.0938 68.1854 18.0211 67.7881 17.9835C67.6361 17.9684 67.1996 17.9584 66.7631 18.0136C66.714 18.0186 66.4982 18.0462 66.1721 18.149C65.9072 18.2317 65.6228 18.3821 65.4953 18.4624C64.5143 19.0842 64.0926 20.1397 64.2569 21.2755C64.48 22.81 65.819 24.367 67.3418 24.7983C68.6195 25.1593 70.0393 24.7156 70.8191 22.8802C70.8682 23.3516 70.9197 23.8455 70.9516 24.0361C70.9565 24.0586 70.9761 24.1915 71.0325 24.3094C71.0889 24.4247 71.084 24.4297 71.1674 24.525C71.2017 24.5626 71.2336 24.6002 71.2704 24.6353C71.3832 24.7381 71.496 24.7883 71.518 24.7958C71.8663 24.9512 72.1654 24.8209 72.2169 24.7983C72.2709 24.7757 72.5897 24.6378 72.7393 24.2316C72.8423 23.9533 72.7932 23.6976 72.7834 23.6525C72.7711 23.5848 72.7442 23.4694 72.7246 23.4017C72.651 23.1385 72.3861 22.2258 72.3445 22.0729C72.2169 21.604 72.2145 21.604 71.9791 20.759C71.9227 20.5585 71.7265 19.889 71.6627 19.7035C71.621 19.5831 71.6039 19.4252 71.5475 19.3199C71.7167 17.5497 71.6627 15.3884 70.5518 14.2627C68.9333 12.6229 66.1991 14.2476 65.1838 15.2931C64.9361 15.5489 64.5977 15.9576 64.7718 16.3136C64.7841 16.3362 64.8552 16.4816 65.0048 16.5167C65.022 16.5217 65.1225 16.5443 65.2231 16.4716C65.3261 16.3964 65.4119 16.1506 65.7062 15.8673C66.1893 15.401 67.3124 14.6137 68.5949 14.6287C69.463 14.6387 69.9093 15.08 70.135 15.7796C70.3949 16.5869 70.3459 17.6801 70.2134 18.6479C70.0173 18.5627 69.7549 18.4548 69.4728 18.352V18.347ZM69.8284 20.6061C69.6862 21.1853 69.5513 21.7143 69.2938 22.1681C68.9162 22.8301 68.5042 22.9504 68.1192 22.8928C67.3443 22.7774 66.4982 21.9049 66.2898 21.1602C66.1942 20.8192 66.2653 20.6989 66.2751 20.6788C66.2751 20.6788 66.3168 20.5835 66.4492 20.4908C66.562 20.4105 66.665 20.3629 66.6846 20.3554C66.8734 20.2676 67.001 20.225 67.0279 20.2175C67.1579 20.1748 67.3541 20.0971 67.7465 20.0244C67.9083 19.9943 68.0824 19.9467 68.4772 19.8965C68.7175 19.8664 68.8475 19.8389 69.2203 19.8038C69.3551 19.7912 69.5881 19.7511 70.0271 19.716C69.951 20.0921 69.875 20.4055 69.826 20.6086L69.8284 20.6061Z" fill="#D74304"/>
<path fill-rule="evenodd" clip-rule="evenodd" d="M77.3264 24.8475C77.8989 24.6379 78.1016 24.0723 78.2054 23.739C78.4208 23.0497 78.5778 22.0144 78.8311 20.3505C78.9122 19.8202 79.1858 17.8482 79.4847 16.4898C79.8089 15.0253 80.0673 14.7021 80.1484 14.6011C80.1585 14.6112 80.1712 14.6213 80.1864 14.6364C80.7361 15.1945 81.3567 17.1917 81.3694 17.2245C81.3846 17.2599 81.3947 17.2978 81.4175 17.3281C81.4859 17.4215 81.5872 17.4366 81.605 17.4417C81.7266 17.4594 81.8076 17.4013 81.8228 17.3887C81.9165 17.3205 81.9318 17.222 81.9343 17.2043C81.9419 17.1488 81.9394 17.1463 81.9292 17.0907C81.4606 14.6415 80.9742 13.831 80.384 13.6189C79.8013 13.4068 79.358 13.8789 79.3327 13.9042C78.6488 14.5657 78.0611 16.3736 77.5645 18.1689C77.4277 18.6613 77.3062 19.1233 77.1947 19.5526C77.1694 19.4491 77.139 19.3329 77.101 19.1966C77.0858 19.1385 77.0326 18.939 76.8781 18.4921C76.7311 18.0628 76.6095 17.7674 76.607 17.7649C76.5082 17.5402 76.3208 17.1311 76.0649 16.6842C75.9104 16.4165 75.6824 16.0959 75.5329 15.904C75.3936 15.7247 75.2822 15.601 75.2796 15.601C75.0567 15.3662 74.5577 14.8687 73.8889 14.596C73.8661 14.5859 73.704 14.5203 73.5824 14.4925C73.4557 14.4622 72.9846 14.3536 72.5108 14.5127C72.4095 14.5455 72.369 14.5809 72.3589 14.591C72.3462 14.6011 72.2677 14.6667 72.2525 14.7778C72.2347 14.899 72.3183 15.0379 72.331 15.0581C72.3411 15.0733 72.4171 15.202 72.521 15.1667C72.5666 15.1515 72.6096 15.0935 72.6147 15.0884C72.6071 15.0985 72.868 15.0985 73.1821 15.3384C73.3139 15.4369 73.6634 15.6843 73.9877 16.4064C74.0612 16.568 74.1827 16.8079 74.3221 17.2624C74.3905 17.4821 74.4969 17.78 74.6159 18.333C74.6514 18.4971 74.7451 18.8355 74.8566 19.4718C74.9072 19.7622 74.9123 19.7596 74.968 20.0828C75.0263 20.4187 75.0314 20.4161 75.0846 20.752C75.1175 20.9514 75.12 20.9514 75.153 21.1509C75.2467 21.6938 75.381 22.6154 75.4063 22.7442C75.5076 23.2997 75.6191 23.7819 75.7786 24.1178C76.146 24.8929 76.8451 25.0192 77.3264 24.845V24.8475Z" fill="#D74304"/>
<path fill-rule="evenodd" clip-rule="evenodd" d="M91.5491 21.6081C92.1501 22.9739 92.8506 23.706 93.3245 24.108C93.6088 24.3503 93.803 24.4701 93.9903 24.5739C94.1059 24.6378 94.2353 24.7124 94.5127 24.8082C94.7139 24.8801 95.2941 24.952 95.7611 24.8907C96.1564 24.8401 97.525 24.3902 97.696 24.3024C97.9295 24.1826 98.7594 23.8045 98.8219 23.5436C98.838 23.477 98.7872 23.3386 98.6207 23.3413C97.7145 23.3492 97.3678 23.28 97.3192 23.2747C96.5864 23.2348 96.1656 23.0484 95.9738 22.9632C95.9483 22.9526 95.6987 22.8887 95.3773 22.6943C95.2756 22.6331 95.2409 22.6251 95.0861 22.5239C94.9682 22.4467 94.9381 22.4361 94.8017 22.3322C94.7 22.255 94.2677 21.9755 93.81 21.2647C93.239 20.3754 92.9523 19.2866 92.9176 19.1614C92.8991 19.0922 92.7466 18.5704 92.6194 17.7238C93.1396 17.3404 93.7822 16.8452 94.448 16.2702C97.34 13.7756 98.1075 12.0477 98.378 11.1692C99.0577 8.96742 98.4867 7.28484 96.843 6.62459C94.8919 5.84186 92.9223 6.82426 91.66 9.81936C90.8879 11.6484 90.5319 13.8661 90.5203 15.9507C90.518 16.5177 90.5273 17.8862 90.8717 19.4729C90.911 19.6486 91.133 20.6789 91.5444 21.6108L91.5491 21.6081ZM93.6481 9.64898C94.4156 8.24061 95.2317 8.08353 95.5114 8.04626C96.0154 7.97704 96.4893 8.07022 96.8846 8.5095C97.3238 8.99671 97.4232 9.88592 97.3978 10.3039C97.377 10.6553 97.3123 10.8577 97.2822 10.9988C97.2314 11.2277 97.0557 11.7336 96.9655 11.9306C96.0801 13.8474 94.0319 15.562 92.52 16.8745C92.4784 16.4352 92.453 15.9454 92.4507 15.4129C92.446 13.3443 92.8413 11.1266 93.6458 9.64898H93.6481Z" fill="#D74304"/>
<path fill-rule="evenodd" clip-rule="evenodd" d="M65.791 43.5812C64.6758 43.7032 64.5486 43.525 63.9604 43.1955C63.1992 42.7658 62.2597 41.2328 62.2648 40.7251C62.2648 40.7251 63.963 39.4216 64.765 38.5061C67.647 35.218 67.9347 33.0991 68.0289 32.1764C68.2529 29.9941 68.0009 28.5709 66.1958 27.8923C64.3474 27.1966 62.4023 28.2194 61.0911 31.0682C60.2917 32.8087 59.8792 34.8958 59.8054 36.8462C59.785 37.3759 59.7545 38.6575 60.0396 40.1295C60.0702 40.293 60.2561 41.2475 60.6252 42.1068C61.165 43.3615 61.585 43.8814 62.2648 44.3818C62.9446 44.8823 63.9095 45.1727 64.6962 45.1142C65.4855 45.0556 66.4478 44.4673 66.6362 44.1499C66.8679 43.7667 66.3002 43.525 65.791 43.5812ZM61.6843 36.275C61.7454 34.3392 62.1935 32.2496 63.0133 30.8411C63.7975 29.4961 64.9686 29.4595 65.4626 29.667C66.1882 29.9721 66.6184 32.0934 66.1627 33.7387C65.5797 35.838 62.6238 39.7096 62.0255 39.6413C61.7836 39.2409 61.6589 37.1367 61.6869 36.275H61.6843Z" fill="#D74304"/>
<path fill-rule="evenodd" clip-rule="evenodd" d="M99.3509 27.8923C97.4409 27.1966 95.4309 28.2194 94.076 31.0682C93.25 32.8087 92.8238 34.8958 92.7475 36.8462C92.7264 37.3759 92.6949 38.6575 92.9895 40.1295C93.0211 40.293 93.2131 41.2475 93.5946 42.1068C94.1523 43.3615 94.5864 43.8814 95.2888 44.3818C95.9913 44.8823 96.9884 45.1727 97.8013 45.1142C98.6169 45.0556 99.6113 44.4673 99.806 44.1499C100.045 43.7667 99.4587 43.525 98.9326 43.5812C97.7803 43.7032 97.6487 43.525 97.041 43.1955C96.2544 42.7658 95.2836 41.2328 95.2888 40.7251C95.2888 40.7251 97.0436 39.4216 97.8723 38.5061C100.85 35.218 101.148 33.0991 101.245 32.1764C101.477 29.9941 101.216 28.5709 99.3509 27.8923ZM99.3167 33.7363C98.7142 35.8356 95.6598 39.7072 95.0415 39.6388C94.7916 39.2385 94.6627 37.1343 94.6917 36.2726C94.7548 34.3368 95.2178 32.2472 96.0649 30.8387C96.8752 29.4937 98.0854 29.4571 98.5958 29.6645C99.3456 29.9697 99.7902 32.091 99.3193 33.7363H99.3167Z" fill="#D74304"/>
<path fill-rule="evenodd" clip-rule="evenodd" d="M84.3356 42.8979C84.2598 42.8422 84.0894 42.8329 83.9664 42.8584C83.254 42.9976 81.8506 43.4593 80.8543 43.0997C76.4452 41.515 78.5965 35.4199 82.2742 36.522C82.5937 36.6171 82.8754 36.7679 83.1641 36.8537C83.4694 36.9419 83.8954 37.109 84.1131 36.8329C84.4066 36.4616 83.3085 35.2737 82.5724 34.9697C81.7654 34.638 80.8188 34.4059 79.3846 34.8398C78.5989 35.0788 77.8084 35.6844 77.115 36.9628C75.8417 39.3085 76.2985 42.9211 78.2936 44.3758C80.0993 45.6937 82.3097 44.9234 82.8517 44.631C83.4434 44.3132 83.8575 43.9373 84.1486 43.6357C84.3356 43.4431 84.3876 43.3271 84.416 43.1948C84.4539 43.0185 84.4113 42.9559 84.3356 42.8979Z" fill="#D74304"/>
<path fill-rule="evenodd" clip-rule="evenodd" d="M112.547 44.3308C113.451 44.0436 114.583 43.0821 114.677 42.9447C114.756 42.8324 114.722 42.7399 114.714 42.725C114.682 42.6525 114.622 42.6326 114.614 42.6276C114.593 42.6201 114.57 42.6176 114.546 42.6176C114.473 42.6226 114.429 42.67 114.421 42.6775C113.731 43.3418 113.07 43.5241 111.985 43.9087C111.606 43.669 109.617 43.4517 109.256 43.3518C109.196 43.0596 109.243 42.3154 109.243 42.3154C109.285 42.4278 113.556 39.5334 115.276 36.1395C116.313 34.0917 116.779 31.7192 115.44 29.8412C113.83 27.5836 110.978 27.8983 109.324 29.599C108.271 30.6803 107.863 32.1937 107.625 33.1577C106.896 36.127 106.875 40.345 107.241 44.3332C107.071 44.4007 106.979 44.4556 106.919 44.4931C106.438 44.8027 106.6 45.2298 106.608 45.2548C106.726 45.5919 107.081 45.6768 107.262 45.7118C107.301 45.7193 107.34 45.7268 107.384 45.7318C107.426 46.0939 107.471 46.451 107.518 46.8031C107.693 48.1317 107.865 49.0982 107.865 49.1007C108.477 52.2598 109.094 54.0629 109.285 54.6123C110.427 57.8963 111.462 58.6979 112.291 58.9052C112.544 58.9676 114.204 59.3722 115.171 56.6626C116.266 53.5984 116.039 47.6722 113.443 45.0375C113.352 44.9451 112.641 44.4057 112.549 44.3258L112.547 44.3308ZM109.826 34.2915C109.896 33.9019 110.043 33.0802 110.333 32.366C110.605 31.6967 111.114 31.2622 111.195 31.1973C111.823 30.6803 112.492 30.6853 112.644 30.6903C113.561 30.7128 114.011 31.3196 114.063 31.4095C115.064 33.1327 112.871 37.9176 110.976 39.7881C110.474 40.2826 109.656 40.9269 109.253 41.2291C109.232 41.0642 109.389 36.7014 109.828 34.2915H109.826ZM112.787 56.745C112.787 56.745 112.785 56.745 112.782 56.7425H112.787V56.745ZM112.79 56.7525C112.79 56.7525 112.793 56.745 112.795 56.7425C112.785 56.73 112.693 56.6601 112.555 56.4603C111.849 55.4314 111.086 53.2238 110.973 52.8991C110.375 51.1934 109.985 49.1981 109.936 48.9408C109.591 47.1577 109.363 45.1923 109.376 45.1773C111.739 45.3796 113.441 47.42 113.864 48.8909C115.197 53.5235 113.417 56.8974 112.79 56.755V56.7525Z" fill="#D74304"/>
<path fill-rule="evenodd" clip-rule="evenodd" d="M72.849 34.2969C71.2776 33.3666 69.9324 33.7906 68.8451 34.6536C66.7654 36.3021 66.4564 39.512 66.8748 41.4948C67.157 42.8341 68.0594 44.0886 69.3462 44.7371C70.903 45.5227 73.1652 45.0763 74.3377 43.6571C76.1231 41.4998 75.712 37.7562 74.7317 36.2174C74.7317 36.2174 74.019 34.9878 72.849 34.2944V34.2969ZM68.4949 38.4346C68.8913 35.9829 70.5624 35.6063 70.8252 35.5839C71.3822 35.5365 72.3601 35.7185 73.0849 36.6613C73.5252 37.2349 73.7344 37.7811 73.7539 38.4994C73.8682 42.5597 67.6094 43.914 68.4949 38.4346Z" fill="#D74304"/>
<path fill-rule="evenodd" clip-rule="evenodd" d="M121.377 35.0886C119.856 34.2268 118.552 34.6201 117.5 35.4188C115.483 36.9482 115.184 39.9221 115.591 41.7599C115.866 43.0028 116.739 44.1633 117.985 44.7653C119.495 45.4936 121.683 45.0785 122.819 43.7651C124.549 41.7647 124.152 38.2931 123.202 36.8681C123.202 36.8681 122.513 35.7295 121.377 35.0862V35.0886ZM117.162 38.9243C117.545 36.652 119.167 36.3024 119.42 36.283C119.961 36.2393 120.908 36.4068 121.609 37.2808C122.037 37.8125 122.238 38.3198 122.257 38.985C122.37 42.7479 116.306 44.0055 117.162 38.9243Z" fill="#D74304"/>
<path fill-rule="evenodd" clip-rule="evenodd" d="M130.81 35.8807C129.142 35.0869 127.712 35.4492 126.558 36.1848C124.346 37.5935 124.018 40.3326 124.464 42.0253C124.766 43.1701 125.724 44.2389 127.09 44.7935C128.746 45.4643 131.146 45.0819 132.392 43.8722C134.289 42.0298 133.854 38.8323 132.812 37.5197C132.812 37.5197 132.057 36.471 130.81 35.8785V35.8807ZM126.185 39.4136C126.605 37.3207 128.384 36.9987 128.662 36.9808C129.255 36.9406 130.294 37.0949 131.062 37.8998C131.532 38.3895 131.752 38.8568 131.773 39.4695C131.896 42.9353 125.246 44.0936 126.185 39.4136Z" fill="#D74304"/>
<path fill-rule="evenodd" clip-rule="evenodd" d="M43.2074 30.3026C36.6517 27.2285 29.4187 25.9794 22.2034 25.9944C22.211 25.8242 22.2211 25.6565 22.2363 25.4937C22.2363 23.809 25.3423 19.9639 27.6092 19.4783C30.5939 18.91 33.8212 23.4886 34.6956 22.8177C35.4033 22.2069 34.8852 20.9953 34.6956 20.014C34.0967 17.786 34.4101 14.4316 34.635 13.3902C34.7108 12.8695 35.0065 11.345 36.1235 9.29981C36.7149 8.19084 39.2245 5.45722 39.6212 4.8364C41.0138 2.65602 40.9607 1.512 40.9607 1.512C40.9607 0.372994 40.4375 0 39.6212 0C36.72 0 33.7909 1.57208 31.7312 2.82624C31.208 3.14416 27.1569 5.79267 24.574 6.69636C22.158 7.50493 17.2955 7.9355 15.8044 8.77912C14.3336 9.34237 13.4971 10.3412 14.4347 11.1598C15.6857 12.2562 19.6812 13.0373 20.2928 14.5067C20.6062 14.9022 20.351 16.2966 20.2928 17.02C20.1362 18.2216 19.6787 19.5709 19.3729 20.8351C18.9408 22.5323 18.6527 24.3222 18.5895 26.1096C17.1995 26.1897 15.812 26.3148 14.4347 26.4826C10.2925 27.0758 5.81171 28.2424 2.63496 31.2088L2.64001 31.2013L2.63496 31.1963C-1.18372 34.8211 -0.650469 39.6525 2.93822 43.2222C4.96255 45.2799 7.4898 46.6668 10.1131 47.613L10.52 46.5491C5.03584 44.4739 -1.96211 38.0328 3.94154 32.5906C7.82087 29.3363 13.4263 28.5753 18.6527 28.4652C18.7361 29.3839 18.8978 30.2926 19.1404 31.1863C15.1448 31.4867 11.2352 32.3078 8.21765 33.7422C5.07375 35.2091 3.65091 38.511 6.52945 41.172C11.6977 45.5453 24.7383 46.2062 31.4279 46.1035C36.0983 45.9308 44.2133 45.6029 47.7186 42.2459C52.5557 37.1717 48.2291 32.6282 43.2074 30.3051V30.3026ZM18.0992 10.3387C19.6509 10.3387 23.3811 9.96569 23.3811 9.96569C24.9101 9.79546 27.4146 8.7666 29.0472 7.88293C29.9899 7.33971 32.2139 6.09807 32.9721 5.64998C33.7277 5.20189 35.3729 4.3833 37.5716 3.51465C37.4251 3.64983 37.2861 3.78501 37.1496 3.9252C35.7369 5.40966 34.2155 6.74893 33.2147 8.62141C32.4868 10.0308 32.1886 10.8494 31.8222 12.8946C31.4532 14.9348 32.1836 17.9488 32.7673 20.0165C32.6536 19.9239 31.3116 18.6171 31.1903 18.527C29.1054 16.7797 27.2074 16.9925 25.0896 18.8625C24.4375 19.4207 23.879 20.0641 23.3811 20.7475V20.74C23.4696 20.4971 23.5656 20.2543 23.6591 20.014C24.2556 18.4194 24.8849 16.8949 24.569 14.9373C24.2177 12.7744 19.9972 11.2699 18.0992 10.3412V10.3387ZM45.5274 40.1281C44.835 40.779 43.953 41.1269 43.0153 41.4524C39.2978 42.6164 35.287 42.8442 31.3597 42.9268C28.6909 42.9569 26.012 42.8492 23.3533 42.6089C19.0671 42.1583 12.0919 41.3998 8.73573 38.7613C8.43246 38.4759 8.14688 38.1655 8.28588 37.7975C8.87473 36.8688 10.2925 36.3857 11.3742 35.9776L11.3792 35.9726C14.2098 35.0965 17.3259 34.5808 20.4799 34.4131C22.8757 38.5035 27.8923 40.2933 32.4363 40.048C34.314 39.9279 38.2085 39.5749 38.7746 37.2994C38.9237 36.8237 38.7114 36.0152 38.4056 35.6847C38.1934 35.4194 37.9634 35.1665 37.7283 34.9362C35.9795 33.2966 33.6443 32.4805 31.4582 31.9473C28.9259 31.374 25.9109 31.0661 22.8049 31.0586C22.5219 30.235 22.3424 29.3639 22.2515 28.4777C22.4031 28.4802 22.5547 28.4827 22.7064 28.4852C28.0237 28.6304 33.341 29.4415 38.3323 31.3014C41.0694 32.3478 46.0809 34.373 46.786 37.3394C46.9629 38.3858 46.273 39.3571 45.5325 40.1281H45.5274ZM24.9986 34.4206C26.9521 34.5307 28.8678 34.781 30.6849 35.169H30.6874C31.9106 35.4895 33.1414 35.8399 34.1952 36.4457C31.2965 37.0365 27.8114 36.4457 25.5925 34.8837C25.3827 34.736 25.1856 34.5808 24.9986 34.4206Z" fill="#D74304"/>
<path fill-rule="evenodd" clip-rule="evenodd" d="M82.7483 23.1769C84.1113 24.936 86.5132 24.3079 87.6956 23.9638C87.75 23.9469 90.4166 22.9771 90.9657 22.6956C91.1092 22.6234 91.1018 22.4188 90.9905 22.2792C90.9212 22.1926 90.8272 22.183 90.8099 22.1806C90.7753 22.1758 90.6986 22.1926 90.57 22.2311C86.4736 23.4945 84.554 22.9194 84.0346 21.9014C83.8639 21.5645 83.8169 21.1241 83.8763 20.638C84.0173 20.6885 84.1756 20.7439 84.3438 20.7968C84.4007 20.8161 84.7792 20.9364 85.0661 21.0038C86.3573 21.3118 87.5768 21.0928 88.4204 20.7102C88.5465 20.6524 89.4667 20.2192 89.7215 19.0593C89.7611 18.874 89.8229 18.5275 89.8328 17.998C89.8452 17.2785 89.7116 16.6239 89.6052 16.2653C89.4444 15.7311 89.3232 15.4519 89.1328 15.1319C88.9596 14.8431 88.6529 14.535 88.4575 14.3401C88.4129 14.2944 88.1928 14.0754 87.8366 13.8781C86.8595 13.3438 85.5163 13.3968 84.1855 14.7877C84.0816 14.896 83.5522 15.4495 83.0674 16.3375C81.8454 18.5708 81.4373 21.4827 82.7483 23.1745V23.1769ZM86.6171 15.6228C87.3245 15.5578 88.0642 15.9501 88.3758 17.0739C88.7271 18.3325 88.1977 19.0954 87.745 19.3192C86.4118 19.9786 84.4279 19.4083 84.089 19.3505C84.4131 16.9584 85.6227 15.7142 86.6146 15.6228H86.6171ZM82.491 19.8101C82.491 19.8101 82.4886 19.8101 82.4861 19.8101C82.4861 19.8101 82.4886 19.8101 82.491 19.8101Z" fill="#D74304"/>
<path fill-rule="evenodd" clip-rule="evenodd" d="M58.1939 20.4523C58.1939 20.4523 60.4486 23.4488 62.7252 24.8035C62.9921 24.9632 63.1766 24.9133 63.264 24.8759C63.4411 24.801 63.4314 24.3544 63.2518 24.0226C62.9897 23.5361 62.4315 22.9822 61.9097 22.4558C61.1209 21.6599 59.2327 19.6639 59.2861 19.7088C59.6356 20.0107 62.446 19.9808 62.9217 18.3541C63.6984 15.7144 60.5408 12.1366 57.6017 14.1576C56.3445 15.0208 56.1139 16.64 56.2159 18.636C56.2474 19.2323 56.1819 23.4288 56.7474 24.2646C57.3347 25.1328 58.2691 24.9108 58.6089 24.2222C58.8079 23.823 58.7958 23.4637 58.4803 22.1664C58.4221 21.9218 58.2522 20.6943 58.1939 20.4473V20.4523ZM57.8832 18.2792C57.6697 15.9165 58.6016 15.4998 59.3273 15.415C60.252 15.3077 61.9752 16.5053 61.5335 17.8251C61.1573 18.9504 57.9342 18.5562 57.91 18.5636C57.8954 18.4339 57.8881 18.3441 57.8808 18.2792H57.8832Z" fill="#D74304"/>
</svg>
