<svg width="341" height="152" viewBox="0 0 341 152" fill="none" xmlns="http://www.w3.org/2000/svg">
<path fill-rule="evenodd" clip-rule="evenodd" d="M127.489 22.379C127.489 22.379 135.147 22.2667 136.186 22.3063C138.2 22.3724 140.879 21.5598 141.013 19.9149C141.212 17.4905 138.042 17.1403 136.315 16.8299C132.229 16.1032 129.322 16.4995 126.783 16.5392C126.748 16.5392 119.341 16.7968 114.999 18.5342C112.46 19.5516 110.265 20.2188 111.216 22.8745C111.812 24.5326 116.493 24.6978 118.32 24.3344C120.894 23.8257 124.95 22.5904 124.95 22.5904C124.95 22.5904 125.341 26.9108 125.271 31.4624C125.172 38.1478 125.073 41.2461 125.055 44.4831C125.055 44.602 123.865 60.3907 125.873 62.4584C126.223 62.8151 127.402 62.8349 127.775 62.4452C128.301 61.8969 128.966 60.4567 129.165 59.1884C129.486 57.1867 129.346 56.0438 129.165 50.0455C128.896 40.8167 127.472 22.379 127.472 22.379H127.489Z" fill="#FFFCEB"/>
<path fill-rule="evenodd" clip-rule="evenodd" d="M340.773 113.585C340.755 113.424 340.713 113.146 340.684 112.985C340.564 112.352 340.121 110.172 340.055 109.804C339.852 108.681 339.846 108.681 339.457 106.662C339.367 106.184 339.038 104.578 338.924 104.133C338.846 103.829 338.894 103.655 338.798 103.539C338.816 103.281 338.834 103.029 338.852 102.778C339.002 100.042 339.78 93.2221 339.792 93.1317C340.702 86.3958 341.019 81.5051 340.187 77.408C339.882 75.924 339.511 74.1046 337.853 72.9109C337.452 72.6206 336.686 72.5561 335.872 73.3561C334.417 74.782 334.376 76.7628 334.435 78.4855C334.507 80.447 334.525 84.0601 334.507 85.3312C334.459 88.6088 334.411 89.1573 334.411 90.9767C334.411 92.0736 334.501 95.2996 334.591 96.5191C334.214 93.7834 333.43 90.6799 330.521 88.9572C326.613 86.6474 322.969 89.1831 321.945 90.0089C316.81 94.1576 316.002 102.074 317.044 106.997C317.75 110.327 319.988 113.436 323.19 115.049C327.062 117.004 331.365 116.088 334.382 114.011C335.148 113.482 335.776 112.972 336.297 112.475C336.315 113.153 336.333 113.746 336.351 114.036C336.351 114.088 336.38 114.404 336.488 114.688C336.596 114.972 336.584 114.978 336.764 115.217C336.835 115.314 336.907 115.411 336.985 115.495C337.23 115.759 337.488 115.901 337.542 115.927C338.338 116.372 339.074 116.14 339.205 116.101C339.343 116.056 340.127 115.817 340.564 114.908C340.863 114.282 340.803 113.682 340.791 113.572L340.773 113.585ZM321.059 99.3967C321.963 93.2995 326.2 92.3769 326.853 92.3188C328.241 92.2026 330.671 92.6543 332.472 94.9899C333.568 96.4158 334.07 97.7708 334.136 99.5516C334.561 111.327 318.929 113.804 321.059 99.3903V99.3967Z" fill="#FFFCEB"/>
<path fill-rule="evenodd" clip-rule="evenodd" d="M219.832 112.574C219.653 111.943 219.009 109.769 218.91 109.402C218.601 108.279 218.595 108.285 218.02 106.267C217.884 105.787 217.408 104.189 217.253 103.745C217.154 103.463 217.111 103.078 216.975 102.832C217.389 98.6099 217.259 93.4569 214.55 90.7723C210.61 86.8625 203.955 90.7363 201.475 93.2347C200.869 93.8473 200.046 94.8202 200.473 95.6731C200.498 95.7271 200.671 96.0755 201.042 96.1595C201.085 96.1716 201.327 96.2256 201.574 96.0514C201.828 95.8713 202.032 95.2887 202.749 94.61C203.924 93.4989 206.658 91.6191 209.788 91.6612C211.903 91.6852 212.985 92.7362 213.536 94.4058C214.167 96.3277 214.049 98.9403 213.727 101.246C213.251 101.048 212.608 100.79 211.921 100.538C211.507 100.388 210.214 100.033 209.775 99.9553C209.676 99.9372 208.786 99.7631 207.815 99.673C207.444 99.6369 206.386 99.6129 205.316 99.745C205.198 99.757 204.673 99.8231 203.875 100.069C203.232 100.268 202.539 100.622 202.23 100.814C199.842 102.298 198.815 104.814 199.211 107.523C199.756 111.186 203.015 114.892 206.72 115.919C209.831 116.784 213.288 115.721 215.187 111.348C215.305 112.471 215.435 113.649 215.509 114.105C215.515 114.159 215.571 114.477 215.707 114.754C215.843 115.03 215.83 115.042 216.034 115.264C216.115 115.354 216.195 115.444 216.288 115.528C216.56 115.769 216.839 115.889 216.888 115.913C217.735 116.279 218.465 115.973 218.589 115.919C218.725 115.865 219.498 115.534 219.863 114.567C220.117 113.901 219.993 113.294 219.974 113.186C219.943 113.024 219.875 112.748 219.832 112.586V112.574ZM212.781 105.913C212.435 107.294 212.107 108.556 211.482 109.637C210.561 111.216 209.559 111.504 208.625 111.366C206.738 111.096 204.679 109.012 204.172 107.234C203.937 106.418 204.116 106.129 204.135 106.087C204.135 106.087 204.234 105.859 204.561 105.637C204.84 105.445 205.087 105.33 205.137 105.312C205.594 105.102 205.903 105.006 205.971 104.982C206.287 104.88 206.763 104.694 207.722 104.526C208.111 104.454 208.544 104.34 209.503 104.219C210.085 104.147 210.406 104.081 211.315 103.997C211.649 103.967 212.206 103.877 213.282 103.787C213.097 104.688 212.911 105.427 212.794 105.913H212.781Z" fill="#FFFCEB"/>
<path fill-rule="evenodd" clip-rule="evenodd" d="M163.852 47.247C163.453 47.0856 162.198 46.7046 161.776 46.6143C161.683 46.5949 160.816 46.4076 159.879 46.3108C159.52 46.272 158.491 46.2462 157.461 46.3883C157.346 46.4012 156.837 46.4722 156.067 46.7369C155.443 46.95 154.772 47.3374 154.471 47.544C152.158 49.1453 151.163 51.8636 151.55 54.7885C152.077 58.74 155.234 62.7496 158.826 63.8601C161.839 64.7899 165.188 63.6471 167.027 58.9208C167.143 60.1346 167.265 61.4066 167.34 61.8973C167.351 61.9554 167.398 62.2976 167.531 62.6011C167.664 62.8981 167.652 62.911 167.849 63.1564C167.93 63.2532 168.005 63.3501 168.092 63.4405C168.358 63.7052 168.624 63.8343 168.676 63.8537C169.497 64.254 170.203 63.9182 170.324 63.8601C170.451 63.802 171.203 63.4469 171.556 62.4009C171.799 61.6842 171.683 61.0256 171.66 60.9094C171.631 60.7351 171.568 60.4381 171.521 60.2638C171.348 59.5858 170.723 57.2355 170.625 56.8417C170.324 55.6343 170.318 55.6343 169.763 53.4584C169.63 52.9418 169.167 51.2179 169.017 50.7401C168.919 50.4302 168.878 50.0234 168.745 49.7522C169.144 45.1938 169.017 39.6281 166.397 36.729C162.58 32.5063 156.131 36.6903 153.736 39.3827C153.152 40.0413 152.354 41.0938 152.765 42.0106C152.794 42.0687 152.961 42.4432 153.314 42.5336C153.355 42.5465 153.592 42.6046 153.829 42.4174C154.072 42.2237 154.274 41.5909 154.968 40.8613C156.108 39.6604 158.757 37.633 161.782 37.6717C163.829 37.6975 164.882 38.8339 165.414 40.6353C166.027 42.7144 165.911 45.5295 165.599 48.0218C165.136 47.8023 164.517 47.5247 163.852 47.2599V47.247ZM164.691 53.0645C164.355 54.556 164.037 55.9184 163.43 57.087C162.539 58.7916 161.568 59.1015 160.66 58.953C158.832 58.656 156.837 56.4091 156.345 54.4914C156.119 53.6133 156.287 53.3034 156.31 53.2518C156.31 53.2518 156.409 53.0064 156.721 52.7675C156.987 52.5609 157.23 52.4382 157.276 52.4188C157.721 52.1929 158.022 52.0831 158.086 52.0637C158.392 51.954 158.855 51.7538 159.78 51.5666C160.162 51.4891 160.573 51.3664 161.504 51.2373C162.071 51.1598 162.377 51.0888 163.256 50.9984C163.575 50.9661 164.124 50.8628 165.159 50.7724C164.98 51.7409 164.801 52.548 164.685 53.071L164.691 53.0645Z" fill="#FFFCEB"/>
<path fill-rule="evenodd" clip-rule="evenodd" d="M182.375 63.9868C183.725 63.4471 184.203 61.9906 184.448 61.1323C184.956 59.3572 185.326 56.6912 185.924 52.4062C186.115 51.0408 186.76 45.9625 187.465 42.4642C188.23 38.6929 188.839 37.8606 189.031 37.6005C189.055 37.6265 189.084 37.6525 189.12 37.6916C190.417 39.1286 191.88 44.2719 191.91 44.3564C191.946 44.4474 191.97 44.545 192.024 44.623C192.185 44.8636 192.424 44.9026 192.466 44.9156C192.753 44.9611 192.944 44.8116 192.98 44.7791C193.201 44.6035 193.237 44.3499 193.243 44.3044C193.261 44.1613 193.255 44.1548 193.231 44.0118C192.125 37.7046 190.978 35.6173 189.586 35.0711C188.212 34.525 187.167 35.7409 187.107 35.8059C185.494 37.5095 184.108 42.1651 182.937 46.7883C182.614 48.0562 182.327 49.2461 182.064 50.3515C182.005 50.0849 181.933 49.7858 181.843 49.4347C181.807 49.2851 181.682 48.7715 181.318 47.6206C180.971 46.5152 180.684 45.7544 180.678 45.7479C180.445 45.1692 180.003 44.1158 179.4 42.9649C179.035 42.2757 178.498 41.4499 178.145 40.9557C177.816 40.494 177.554 40.1754 177.548 40.1754C177.022 39.5707 175.845 38.2898 174.268 37.5875C174.214 37.5615 173.831 37.3925 173.545 37.3209C173.246 37.2429 172.135 36.9633 171.017 37.3729C170.778 37.4575 170.683 37.5485 170.659 37.5745C170.629 37.6005 170.444 37.7696 170.408 38.0557C170.366 38.3678 170.563 38.7254 170.593 38.7774C170.617 38.8165 170.796 39.1481 171.041 39.057C171.149 39.018 171.25 38.8685 171.262 38.8555C171.244 38.8815 171.86 38.8815 172.601 39.4992C172.911 39.7528 173.736 40.39 174.501 42.2497C174.674 42.6658 174.961 43.2835 175.289 44.4539C175.451 45.0196 175.701 45.7869 175.982 47.2109C176.066 47.6336 176.287 48.5049 176.55 50.1434C176.669 50.8912 176.681 50.8847 176.813 51.717C176.95 52.5818 176.962 52.5753 177.088 53.4401C177.165 53.9538 177.171 53.9538 177.249 54.4675C177.47 55.8654 177.787 58.2388 177.846 58.5704C178.085 60.0009 178.348 61.2428 178.725 62.1076C179.591 64.1038 181.24 64.429 182.375 63.9803V63.9868Z" fill="#FFFCEB"/>
<path fill-rule="evenodd" clip-rule="evenodd" d="M215.919 55.6446C217.337 59.1617 218.989 61.047 220.107 62.0823C220.777 62.7062 221.235 63.0147 221.677 63.2821C221.949 63.4466 222.255 63.6386 222.909 63.8854C223.383 64.0705 224.752 64.2556 225.853 64.0979C226.786 63.9677 230.013 62.809 230.417 62.5828C230.968 62.2743 232.925 61.3007 233.072 60.6288C233.11 60.4574 232.99 60.1009 232.598 60.1078C230.46 60.1283 229.643 59.9501 229.528 59.9364C227.8 59.8335 226.807 59.3536 226.355 59.1342C226.295 59.1068 225.706 58.9423 224.948 58.4418C224.708 58.2841 224.627 58.2635 224.261 58.003C223.983 57.8042 223.912 57.7768 223.591 57.5094C223.351 57.3106 222.331 56.5907 221.252 54.7602C219.905 52.4703 219.229 49.6662 219.147 49.344C219.103 49.1657 218.743 47.822 218.444 45.6418C219.67 44.6545 221.186 43.3793 222.756 41.8984C229.577 35.4744 231.387 31.0249 232.025 28.7625C233.628 23.0926 232.282 18.7597 228.405 17.0594C223.803 15.0438 219.158 17.5736 216.181 25.2865C214.36 29.9965 213.52 35.7075 213.493 41.0757C213.487 42.536 213.509 46.06 214.322 50.1461C214.414 50.5986 214.938 53.2518 215.908 55.6514L215.919 55.6446ZM220.87 24.8477C222.68 21.221 224.605 20.8165 225.264 20.7205C226.453 20.5422 227.571 20.7822 228.503 21.9134C229.539 23.168 229.773 25.4579 229.714 26.5343C229.664 27.4393 229.512 27.9603 229.441 28.3237C229.321 28.9133 228.907 30.2159 228.694 30.7233C226.606 35.6595 221.775 40.0748 218.209 43.4547C218.111 42.3235 218.051 41.062 218.046 39.6908C218.035 34.3638 218.967 28.6528 220.864 24.8477H220.87Z" fill="#FFFCEB"/>
<path fill-rule="evenodd" clip-rule="evenodd" d="M155.168 112.23C152.538 112.544 152.238 112.085 150.851 111.236C149.056 110.13 146.84 106.182 146.852 104.875C146.852 104.875 150.857 101.518 152.749 99.1607C159.546 90.6931 160.224 85.2367 160.447 82.8605C160.975 77.2406 160.381 73.5758 156.123 71.8282C151.764 70.0366 147.176 72.6705 144.084 80.0066C142.198 84.4886 141.226 89.8634 141.052 94.886C141.003 96.2502 140.931 99.5504 141.604 103.341C141.676 103.762 142.114 106.22 142.985 108.433C144.258 111.664 145.249 113.003 146.852 114.292C148.455 115.58 150.731 116.328 152.587 116.177C154.448 116.027 156.718 114.512 157.162 113.694C157.708 112.707 156.369 112.085 155.168 112.23ZM145.483 93.4151C145.627 88.4301 146.684 83.0491 148.617 79.4219C150.467 75.9582 153.229 75.8639 154.394 76.3983C156.105 77.184 157.12 82.6468 156.045 86.8837C154.67 92.2898 147.699 102.26 146.288 102.084C145.717 101.053 145.423 95.6341 145.489 93.4151H145.483Z" fill="#FFFCEB"/>
<path fill-rule="evenodd" clip-rule="evenodd" d="M234.32 71.8282C229.815 70.0366 225.074 72.6705 221.879 80.0066C219.931 84.4886 218.925 89.8634 218.745 94.886C218.696 96.2502 218.621 99.5504 219.316 103.341C219.391 103.762 219.844 106.22 220.743 108.433C222.059 111.664 223.083 113.003 224.739 114.292C226.396 115.58 228.748 116.328 230.665 116.177C232.588 116.027 234.934 114.512 235.393 113.694C235.958 112.707 234.574 112.085 233.333 112.23C230.615 112.544 230.305 112.085 228.872 111.236C227.016 110.13 224.727 106.182 224.739 104.875C224.739 104.875 228.878 101.518 230.832 99.1607C237.856 90.6931 238.557 85.2367 238.787 82.8605C239.333 77.2406 238.719 73.5758 234.32 71.8282ZM234.239 86.8774C232.818 92.2835 225.614 102.253 224.156 102.077C223.567 101.047 223.263 95.6278 223.331 93.4088C223.48 88.4238 224.572 83.0428 226.57 79.4157C228.481 75.952 231.335 75.8577 232.539 76.392C234.307 77.1778 235.356 82.6405 234.245 86.8774H234.239Z" fill="#FFFCEB"/>
<path fill-rule="evenodd" clip-rule="evenodd" d="M198.906 110.469C198.727 110.326 198.325 110.302 198.035 110.368C196.355 110.726 193.045 111.915 190.695 110.989C180.296 106.908 185.37 91.2121 194.044 94.0502C194.797 94.2952 195.462 94.6836 196.143 94.9046C196.863 95.1317 197.867 95.5619 198.381 94.8508C199.073 93.8949 196.483 90.8357 194.747 90.053C192.844 89.1986 190.611 88.6011 187.229 89.7184C185.375 90.3338 183.511 91.8933 181.876 95.1855C178.873 101.226 179.95 110.529 184.655 114.275C188.914 117.669 194.128 115.685 195.406 114.933C196.801 114.114 197.778 113.146 198.465 112.369C198.906 111.873 199.028 111.575 199.095 111.234C199.185 110.78 199.084 110.619 198.906 110.469Z" fill="#FFFCEB"/>
<path fill-rule="evenodd" clip-rule="evenodd" d="M265.443 114.16C267.576 113.42 270.245 110.944 270.467 110.59C270.652 110.301 270.572 110.063 270.553 110.024C270.479 109.838 270.338 109.786 270.319 109.774C270.27 109.754 270.214 109.748 270.159 109.748C269.986 109.761 269.881 109.883 269.863 109.902C268.235 111.613 266.676 112.082 264.117 113.073C263.223 112.455 258.532 111.896 257.681 111.639C257.539 110.886 257.65 108.97 257.65 108.97C257.749 109.259 267.822 101.805 271.879 93.0656C274.326 87.7921 275.424 81.6826 272.267 76.8464C268.47 71.0327 261.744 71.843 257.841 76.2226C255.357 79.0072 254.395 82.9045 253.834 85.3869C252.114 93.0334 252.065 103.896 252.928 114.166C252.527 114.34 252.312 114.481 252.17 114.578C251.036 115.375 251.418 116.475 251.436 116.539C251.714 117.407 252.552 117.626 252.977 117.716C253.07 117.735 253.162 117.755 253.267 117.767C253.366 118.7 253.471 119.62 253.582 120.526C253.995 123.948 254.402 126.436 254.402 126.443C255.844 134.578 257.299 139.221 257.749 140.636C260.443 149.093 262.884 151.158 264.839 151.691C265.437 151.852 269.351 152.894 271.632 145.916C274.215 138.025 273.679 122.764 267.557 115.98C267.341 115.742 265.665 114.352 265.449 114.147L265.443 114.16ZM259.025 88.3066C259.192 87.3033 259.537 85.1875 260.221 83.3482C260.862 81.6247 262.064 80.5057 262.255 80.3385C263.735 79.0072 265.313 79.0201 265.671 79.033C267.835 79.0908 268.895 80.6536 269.018 80.8851C271.379 85.3226 266.207 97.6445 261.738 102.461C260.554 103.735 258.624 105.394 257.675 106.172C257.626 105.748 257.996 94.5126 259.031 88.3066H259.025ZM266.01 146.128C266.01 146.128 266.004 146.128 265.998 146.122H266.01V146.128ZM266.016 146.148C266.016 146.148 266.022 146.128 266.028 146.122C266.004 146.09 265.788 145.91 265.461 145.395C263.797 142.746 261.997 137.061 261.731 136.225C260.32 131.832 259.401 126.694 259.284 126.031C258.47 121.44 257.934 116.378 257.965 116.34C263.538 116.861 267.551 122.115 268.55 125.903C271.694 137.832 267.496 146.521 266.016 146.154V146.148Z" fill="#FFFCEB"/>
<path fill-rule="evenodd" clip-rule="evenodd" d="M171.815 88.3209C168.109 85.9252 164.936 87.0171 162.372 89.2393C157.467 93.4847 156.738 101.751 157.725 106.857C158.39 110.306 160.519 113.536 163.554 115.206C167.225 117.229 172.561 116.08 175.326 112.425C179.537 106.869 178.568 97.2291 176.255 93.2663C176.255 93.2663 174.575 90.1 171.815 88.3145V88.3209ZM161.546 98.976C162.481 92.6626 166.422 91.6928 167.042 91.635C168.356 91.5129 170.662 91.9818 172.372 94.4095C173.41 95.8867 173.903 97.2933 173.949 99.143C174.219 109.599 159.458 113.087 161.546 98.976Z" fill="#FFFCEB"/>
<path fill-rule="evenodd" clip-rule="evenodd" d="M286.268 90.3591C282.68 88.1397 279.606 89.1525 277.123 91.2093C272.368 95.1479 271.662 102.806 272.621 107.539C273.27 110.74 275.329 113.728 278.269 115.278C281.828 117.154 286.99 116.085 289.67 112.703C293.749 107.551 292.812 98.6113 290.573 94.9416C290.573 94.9416 288.948 92.0095 286.268 90.3528V90.3591ZM276.328 100.237C277.231 94.3852 281.055 93.4849 281.653 93.4349C282.928 93.3224 285.162 93.7537 286.815 96.0043C287.825 97.3735 288.299 98.6801 288.344 100.393C288.609 110.083 274.308 113.322 276.328 100.237Z" fill="#FFFCEB"/>
<path fill-rule="evenodd" clip-rule="evenodd" d="M308.517 92.3998C304.582 90.3557 301.209 91.2885 298.487 93.1829C293.271 96.8105 292.498 103.864 293.549 108.223C294.261 111.171 296.519 113.924 299.743 115.352C303.647 117.079 309.309 116.095 312.248 112.979C316.721 108.235 315.694 100.001 313.238 96.6205C313.238 96.6205 311.456 93.92 308.517 92.3941V92.3998ZM297.608 101.498C298.598 96.1081 302.793 95.2789 303.449 95.2328C304.848 95.1292 307.298 95.5265 309.111 97.5994C310.218 98.8605 310.738 100.064 310.787 101.642C311.078 110.567 295.393 113.549 297.608 101.498Z" fill="#FFFCEB"/>
<path fill-rule="evenodd" clip-rule="evenodd" d="M101.905 78.0345C86.4433 70.1183 69.3843 66.9015 52.367 66.9402C52.3848 66.5018 52.4087 66.0699 52.4444 65.6509C52.4444 61.3124 59.7699 51.4106 65.1165 50.16C72.1559 48.6966 79.7675 60.4872 81.8299 58.7596C83.4988 57.1866 82.2769 54.0665 81.8299 51.5395C80.4172 45.8022 81.1563 37.1639 81.6868 34.4822C81.8656 33.1413 82.563 29.2154 85.1976 23.9486C86.5923 21.0929 92.5112 14.0533 93.447 12.4546C96.7312 6.8397 96.606 3.89367 96.606 3.89367C96.606 0.960524 95.3722 0 93.447 0C86.6043 0 79.696 4.04838 74.8382 7.27807C73.6043 8.09677 64.0496 14.9171 57.9579 17.2443C52.2597 19.3265 40.7916 20.4353 37.2749 22.6078C33.8059 24.0582 31.8329 26.6304 34.0443 28.7384C36.9947 31.5619 46.4184 33.5732 47.8608 37.3573C48.5999 38.3758 47.9979 41.9665 47.8608 43.8296C47.4912 46.9239 46.4124 50.3985 45.6912 53.654C44.6719 58.0247 43.9924 62.6339 43.8434 67.2367C40.5651 67.443 37.2928 67.7653 34.0443 68.1972C24.275 69.725 13.7069 72.7291 6.21456 80.3681L6.22648 80.3488L6.21456 80.3359C-2.79181 89.6704 -1.53414 102.112 6.92982 111.305C11.7042 116.604 17.6647 120.175 23.8518 122.612L24.8114 119.872C11.8771 114.528 -4.62765 97.9412 9.29615 83.9266C18.4456 75.5462 31.666 73.5865 43.9924 73.3028C44.1891 75.6687 44.5706 78.0087 45.1428 80.3101C35.7192 81.0837 26.4983 83.1982 19.3814 86.892C11.9665 90.6696 8.61069 99.1725 15.3997 106.025C27.589 117.287 58.3454 118.989 74.1229 118.725C85.138 118.28 104.277 117.435 112.544 108.791C123.953 95.7236 113.749 84.0233 101.905 78.041V78.0345ZM42.687 26.6239C46.3468 26.6239 55.1446 25.6634 55.1446 25.6634C58.7507 25.225 64.6576 22.5755 68.5081 20.2999C70.7314 18.901 75.9766 15.7036 77.7648 14.5497C79.547 13.3958 83.4273 11.2878 88.613 9.05085C88.2673 9.39896 87.9394 9.74706 87.6176 10.1081C84.2856 13.9308 80.6974 17.3797 78.337 22.2016C76.6204 25.831 75.917 27.939 75.0527 33.2058C74.1825 38.4596 75.9051 46.2212 77.282 51.546C77.0138 51.3075 73.8487 47.9424 73.5626 47.7103C68.6452 43.2107 64.1688 43.7586 59.1739 48.5742C57.6361 50.0117 56.3188 51.6685 55.1446 53.4283V53.409C55.3532 52.7837 55.5797 52.1584 55.8002 51.5395C57.2069 47.4331 58.6911 43.5072 57.946 38.4661C57.1175 32.8963 47.1634 29.022 42.687 26.6304V26.6239ZM107.377 103.337C105.744 105.013 103.663 105.909 101.452 106.747C92.684 109.745 83.2246 110.331 73.962 110.544C67.6676 110.621 61.3495 110.344 55.079 109.725C44.9699 108.565 28.5189 106.612 20.6033 99.8171C19.888 99.0822 19.2145 98.2829 19.5423 97.3353C20.9311 94.9436 24.275 93.6994 26.8261 92.6487L26.838 92.6358C33.5138 90.3795 40.8631 89.0515 48.3019 88.6196C53.9525 99.1532 65.7841 103.762 76.5012 103.131C80.9298 102.821 90.115 101.912 91.4502 96.0524C91.8018 94.8276 91.3012 92.7454 90.5799 91.8944C90.0793 91.2111 89.5368 90.56 88.9825 89.9669C84.8578 85.7445 79.3503 83.643 74.1944 82.2699C68.222 80.7936 61.1111 80.0007 53.7856 79.9814C53.118 77.8605 52.6948 75.6171 52.4802 73.3351C52.8378 73.3415 53.1955 73.3479 53.5531 73.3544C66.0941 73.7283 78.635 75.8169 90.4071 80.6067C96.8623 83.3013 108.682 88.5165 110.345 96.1556C110.762 98.8502 109.135 101.351 107.389 103.337H107.377ZM58.9593 88.639C63.5668 88.9226 68.0849 89.5673 72.3705 90.5665H72.3765C75.2614 91.3916 78.1641 92.2941 80.6497 93.8542C73.813 95.3755 65.5934 93.8542 60.36 89.8316C59.8653 89.4512 59.4004 89.0515 58.9593 88.639Z" fill="#FFFCEB"/>
<path fill-rule="evenodd" clip-rule="evenodd" d="M195.162 59.6847C198.377 64.2148 204.042 62.5974 206.83 61.7112C206.959 61.6678 213.248 59.1703 214.543 58.4452C214.881 58.2593 214.864 57.7325 214.601 57.3731C214.438 57.15 214.216 57.1252 214.176 57.119C214.094 57.1066 213.913 57.15 213.61 57.2492C203.948 60.5027 199.421 59.0216 198.196 56.4002C197.793 55.5325 197.683 54.3984 197.823 53.1466C198.155 53.2768 198.528 53.4193 198.925 53.5556C199.059 53.6052 199.952 53.9151 200.629 54.0886C203.674 54.8818 206.55 54.3179 208.54 53.3325C208.837 53.1838 211.008 52.0683 211.609 49.0812C211.702 48.604 211.848 47.7117 211.871 46.3483C211.9 44.4953 211.585 42.8097 211.334 41.8863C210.955 40.5105 210.669 39.7916 210.22 38.9674C209.812 38.2237 209.088 37.4305 208.627 36.9285C208.522 36.8108 208.003 36.2468 207.163 35.7386C204.858 34.3629 201.691 34.4992 198.552 38.0812C198.307 38.3601 197.058 39.7854 195.915 42.0722C193.033 47.8232 192.07 55.3218 195.162 59.6785V59.6847ZM204.287 40.2316C205.955 40.0643 207.7 41.0744 208.435 43.9685C209.263 47.2097 208.015 49.1742 206.947 49.7505C203.802 51.4486 199.124 49.9798 198.324 49.8311C199.089 43.6711 201.941 40.4671 204.281 40.2316H204.287ZM194.555 51.0148C194.555 51.0148 194.55 51.0148 194.544 51.0148C194.544 51.0148 194.55 51.0148 194.555 51.0148Z" fill="#FFFCEB"/>
<path fill-rule="evenodd" clip-rule="evenodd" d="M137.25 52.6685C137.25 52.6685 142.568 60.3848 147.937 63.8736C148.567 64.2848 149.002 64.1563 149.208 64.0599C149.626 63.8672 149.603 62.7171 149.179 61.8626C148.561 60.6097 147.245 59.1834 146.014 57.8277C144.154 55.7782 139.7 50.6382 139.826 50.7539C140.65 51.5313 147.279 51.4542 148.401 47.2651C150.233 40.4675 142.786 31.2542 135.854 36.4584C132.888 38.6814 132.345 42.8512 132.585 47.9911C132.659 49.5267 132.505 60.3334 133.839 62.4858C135.224 64.7217 137.428 64.1499 138.229 62.3766C138.698 61.3486 138.67 60.4234 137.926 57.0824C137.788 56.4528 137.388 53.2917 137.25 52.6556V52.6685ZM136.518 47.0724C136.014 40.988 138.212 39.915 139.923 39.6965C142.104 39.4203 146.168 42.5042 145.127 45.903C144.239 48.8007 136.638 47.7855 136.581 47.8048C136.546 47.4707 136.529 47.2394 136.512 47.0724H136.518Z" fill="#FFFCEB"/>
<path fill-rule="evenodd" clip-rule="evenodd" d="M127.489 22.379C127.489 22.379 135.147 22.2667 136.186 22.3063C138.2 22.3724 140.879 21.5598 141.013 19.9149C141.212 17.4905 138.042 17.1403 136.315 16.8299C132.229 16.1032 129.322 16.4995 126.783 16.5392C126.748 16.5392 119.341 16.7968 114.999 18.5342C112.46 19.5516 110.265 20.2188 111.216 22.8745C111.812 24.5326 116.493 24.6978 118.32 24.3344C120.894 23.8257 124.95 22.5904 124.95 22.5904C124.95 22.5904 125.341 26.9108 125.271 31.4624C125.172 38.1478 125.073 41.2461 125.055 44.4831C125.055 44.602 123.865 60.3907 125.873 62.4584C126.223 62.8151 127.402 62.8349 127.775 62.4452C128.301 61.8969 128.966 60.4567 129.165 59.1884C129.486 57.1867 129.346 56.0438 129.165 50.0455C128.896 40.8167 127.472 22.379 127.472 22.379H127.489Z" fill="#FFFCEB"/>
<path fill-rule="evenodd" clip-rule="evenodd" d="M340.773 113.585C340.755 113.424 340.713 113.146 340.684 112.985C340.564 112.352 340.121 110.172 340.055 109.804C339.852 108.681 339.846 108.681 339.457 106.662C339.367 106.184 339.038 104.578 338.924 104.133C338.846 103.829 338.894 103.655 338.798 103.539C338.816 103.281 338.834 103.029 338.852 102.778C339.002 100.042 339.78 93.2221 339.792 93.1317C340.702 86.3958 341.019 81.5051 340.187 77.408C339.882 75.924 339.511 74.1046 337.853 72.9109C337.452 72.6206 336.686 72.5561 335.872 73.3561C334.417 74.782 334.376 76.7628 334.435 78.4855C334.507 80.447 334.525 84.0601 334.507 85.3312C334.459 88.6088 334.411 89.1573 334.411 90.9767C334.411 92.0736 334.501 95.2996 334.591 96.5191C334.214 93.7834 333.43 90.6799 330.521 88.9572C326.613 86.6474 322.969 89.1831 321.945 90.0089C316.81 94.1576 316.002 102.074 317.044 106.997C317.75 110.327 319.988 113.436 323.19 115.049C327.062 117.004 331.365 116.088 334.382 114.011C335.148 113.482 335.776 112.972 336.297 112.475C336.315 113.153 336.333 113.746 336.351 114.036C336.351 114.088 336.38 114.404 336.488 114.688C336.596 114.972 336.584 114.978 336.764 115.217C336.835 115.314 336.907 115.411 336.985 115.495C337.23 115.759 337.488 115.901 337.542 115.927C338.338 116.372 339.074 116.14 339.205 116.101C339.343 116.056 340.127 115.817 340.564 114.908C340.863 114.282 340.803 113.682 340.791 113.572L340.773 113.585ZM321.059 99.3967C321.963 93.2995 326.2 92.3769 326.853 92.3188C328.241 92.2026 330.671 92.6543 332.472 94.9899C333.568 96.4158 334.07 97.7708 334.136 99.5516C334.561 111.327 318.929 113.804 321.059 99.3903V99.3967Z" fill="#FFFCEB"/>
<path fill-rule="evenodd" clip-rule="evenodd" d="M219.832 112.574C219.653 111.943 219.009 109.769 218.91 109.402C218.601 108.279 218.595 108.285 218.02 106.267C217.884 105.787 217.408 104.189 217.253 103.745C217.154 103.463 217.111 103.078 216.975 102.832C217.389 98.6099 217.259 93.4569 214.55 90.7723C210.61 86.8625 203.955 90.7363 201.475 93.2347C200.869 93.8473 200.046 94.8202 200.473 95.6731C200.498 95.7271 200.671 96.0755 201.042 96.1595C201.085 96.1716 201.327 96.2256 201.574 96.0514C201.828 95.8713 202.032 95.2887 202.749 94.61C203.924 93.4989 206.658 91.6191 209.788 91.6612C211.903 91.6852 212.985 92.7362 213.536 94.4058C214.167 96.3277 214.049 98.9403 213.727 101.246C213.251 101.048 212.608 100.79 211.921 100.538C211.507 100.388 210.214 100.033 209.775 99.9553C209.676 99.9372 208.786 99.7631 207.815 99.673C207.444 99.6369 206.386 99.6129 205.316 99.745C205.198 99.757 204.673 99.8231 203.875 100.069C203.232 100.268 202.539 100.622 202.23 100.814C199.842 102.298 198.815 104.814 199.211 107.523C199.756 111.186 203.015 114.892 206.72 115.919C209.831 116.784 213.288 115.721 215.187 111.348C215.305 112.471 215.435 113.649 215.509 114.105C215.515 114.159 215.571 114.477 215.707 114.754C215.843 115.03 215.83 115.042 216.034 115.264C216.115 115.354 216.195 115.444 216.288 115.528C216.56 115.769 216.839 115.889 216.888 115.913C217.735 116.279 218.465 115.973 218.589 115.919C218.725 115.865 219.498 115.534 219.863 114.567C220.117 113.901 219.993 113.294 219.974 113.186C219.943 113.024 219.875 112.748 219.832 112.586V112.574ZM212.781 105.913C212.435 107.294 212.107 108.556 211.482 109.637C210.561 111.216 209.559 111.504 208.625 111.366C206.738 111.096 204.679 109.012 204.172 107.234C203.937 106.418 204.116 106.129 204.135 106.087C204.135 106.087 204.234 105.859 204.561 105.637C204.84 105.445 205.087 105.33 205.137 105.312C205.594 105.102 205.903 105.006 205.971 104.982C206.287 104.88 206.763 104.694 207.722 104.526C208.111 104.454 208.544 104.34 209.503 104.219C210.085 104.147 210.406 104.081 211.315 103.997C211.649 103.967 212.206 103.877 213.282 103.787C213.097 104.688 212.911 105.427 212.794 105.913H212.781Z" fill="#FFFCEB"/>
<path fill-rule="evenodd" clip-rule="evenodd" d="M163.852 47.247C163.453 47.0856 162.198 46.7046 161.776 46.6143C161.683 46.5949 160.816 46.4076 159.879 46.3108C159.52 46.272 158.491 46.2462 157.461 46.3883C157.346 46.4012 156.837 46.4722 156.067 46.7369C155.443 46.95 154.772 47.3374 154.471 47.544C152.158 49.1453 151.163 51.8636 151.55 54.7885C152.077 58.74 155.234 62.7496 158.826 63.8601C161.839 64.7899 165.188 63.6471 167.027 58.9208C167.143 60.1346 167.265 61.4066 167.34 61.8973C167.351 61.9554 167.398 62.2976 167.531 62.6011C167.664 62.8981 167.652 62.911 167.849 63.1564C167.93 63.2532 168.005 63.3501 168.092 63.4405C168.358 63.7052 168.624 63.8343 168.676 63.8537C169.497 64.254 170.203 63.9182 170.324 63.8601C170.451 63.802 171.203 63.4469 171.556 62.4009C171.799 61.6842 171.683 61.0256 171.66 60.9094C171.631 60.7351 171.568 60.4381 171.521 60.2638C171.348 59.5858 170.723 57.2355 170.625 56.8417C170.324 55.6343 170.318 55.6343 169.763 53.4584C169.63 52.9418 169.167 51.2179 169.017 50.7401C168.919 50.4302 168.878 50.0234 168.745 49.7522C169.144 45.1938 169.017 39.6281 166.397 36.729C162.58 32.5063 156.131 36.6903 153.736 39.3827C153.152 40.0413 152.354 41.0938 152.765 42.0106C152.794 42.0687 152.961 42.4432 153.314 42.5336C153.355 42.5465 153.592 42.6046 153.829 42.4174C154.072 42.2237 154.274 41.5909 154.968 40.8613C156.108 39.6604 158.757 37.633 161.782 37.6717C163.829 37.6975 164.882 38.8339 165.414 40.6353C166.027 42.7144 165.911 45.5295 165.599 48.0218C165.136 47.8023 164.517 47.5247 163.852 47.2599V47.247ZM164.691 53.0645C164.355 54.556 164.037 55.9184 163.43 57.087C162.539 58.7916 161.568 59.1015 160.66 58.953C158.832 58.656 156.837 56.4091 156.345 54.4914C156.119 53.6133 156.287 53.3034 156.31 53.2518C156.31 53.2518 156.409 53.0064 156.721 52.7675C156.987 52.5609 157.23 52.4382 157.276 52.4188C157.721 52.1929 158.022 52.0831 158.086 52.0637C158.392 51.954 158.855 51.7538 159.78 51.5666C160.162 51.4891 160.573 51.3664 161.504 51.2373C162.071 51.1598 162.377 51.0888 163.256 50.9984C163.575 50.9661 164.124 50.8628 165.159 50.7724C164.98 51.7409 164.801 52.548 164.685 53.071L164.691 53.0645Z" fill="#FFFCEB"/>
<path fill-rule="evenodd" clip-rule="evenodd" d="M182.375 63.9868C183.725 63.4471 184.203 61.9906 184.448 61.1323C184.956 59.3572 185.326 56.6912 185.924 52.4062C186.115 51.0408 186.76 45.9625 187.465 42.4642C188.23 38.6929 188.839 37.8606 189.031 37.6005C189.055 37.6265 189.084 37.6525 189.12 37.6916C190.417 39.1286 191.88 44.2719 191.91 44.3564C191.946 44.4474 191.97 44.545 192.024 44.623C192.185 44.8636 192.424 44.9026 192.466 44.9156C192.753 44.9611 192.944 44.8116 192.98 44.7791C193.201 44.6035 193.237 44.3499 193.243 44.3044C193.261 44.1613 193.255 44.1548 193.231 44.0118C192.125 37.7046 190.978 35.6173 189.586 35.0711C188.212 34.525 187.167 35.7409 187.107 35.8059C185.494 37.5095 184.108 42.1651 182.937 46.7883C182.614 48.0562 182.327 49.2461 182.064 50.3515C182.005 50.0849 181.933 49.7858 181.843 49.4347C181.807 49.2851 181.682 48.7715 181.318 47.6206C180.971 46.5152 180.684 45.7544 180.678 45.7479C180.445 45.1692 180.003 44.1158 179.4 42.9649C179.035 42.2757 178.498 41.4499 178.145 40.9557C177.816 40.494 177.554 40.1754 177.548 40.1754C177.022 39.5707 175.845 38.2898 174.268 37.5875C174.214 37.5615 173.831 37.3925 173.545 37.3209C173.246 37.2429 172.135 36.9633 171.017 37.3729C170.778 37.4575 170.683 37.5485 170.659 37.5745C170.629 37.6005 170.444 37.7696 170.408 38.0557C170.366 38.3678 170.563 38.7254 170.593 38.7774C170.617 38.8165 170.796 39.1481 171.041 39.057C171.149 39.018 171.25 38.8685 171.262 38.8555C171.244 38.8815 171.86 38.8815 172.601 39.4992C172.911 39.7528 173.736 40.39 174.501 42.2497C174.674 42.6658 174.961 43.2835 175.289 44.4539C175.451 45.0196 175.701 45.7869 175.982 47.2109C176.066 47.6336 176.287 48.5049 176.55 50.1434C176.669 50.8912 176.681 50.8847 176.813 51.717C176.95 52.5818 176.962 52.5753 177.088 53.4401C177.165 53.9538 177.171 53.9538 177.249 54.4675C177.47 55.8654 177.787 58.2388 177.846 58.5704C178.085 60.0009 178.348 61.2428 178.725 62.1076C179.591 64.1038 181.24 64.429 182.375 63.9803V63.9868Z" fill="#FFFCEB"/>
<path fill-rule="evenodd" clip-rule="evenodd" d="M215.919 55.6446C217.337 59.1617 218.989 61.047 220.107 62.0823C220.777 62.7062 221.235 63.0147 221.677 63.2821C221.949 63.4466 222.255 63.6386 222.909 63.8854C223.383 64.0705 224.752 64.2556 225.853 64.0979C226.786 63.9677 230.013 62.809 230.417 62.5828C230.968 62.2743 232.925 61.3007 233.072 60.6288C233.11 60.4574 232.99 60.1009 232.598 60.1078C230.46 60.1283 229.643 59.9501 229.528 59.9364C227.8 59.8335 226.807 59.3536 226.355 59.1342C226.295 59.1068 225.706 58.9423 224.948 58.4418C224.708 58.2841 224.627 58.2635 224.261 58.003C223.983 57.8042 223.912 57.7768 223.591 57.5094C223.351 57.3106 222.331 56.5907 221.252 54.7602C219.905 52.4703 219.229 49.6662 219.147 49.344C219.103 49.1657 218.743 47.822 218.444 45.6418C219.67 44.6545 221.186 43.3793 222.756 41.8984C229.577 35.4744 231.387 31.0249 232.025 28.7625C233.628 23.0926 232.282 18.7597 228.405 17.0594C223.803 15.0438 219.158 17.5736 216.181 25.2865C214.36 29.9965 213.52 35.7075 213.493 41.0757C213.487 42.536 213.509 46.06 214.322 50.1461C214.414 50.5986 214.938 53.2518 215.908 55.6514L215.919 55.6446ZM220.87 24.8477C222.68 21.221 224.605 20.8165 225.264 20.7205C226.453 20.5422 227.571 20.7822 228.503 21.9134C229.539 23.168 229.773 25.4579 229.714 26.5343C229.664 27.4393 229.512 27.9603 229.441 28.3237C229.321 28.9133 228.907 30.2159 228.694 30.7233C226.606 35.6595 221.775 40.0748 218.209 43.4547C218.111 42.3235 218.051 41.062 218.046 39.6908C218.035 34.3638 218.967 28.6528 220.864 24.8477H220.87Z" fill="#FFFCEB"/>
<path fill-rule="evenodd" clip-rule="evenodd" d="M155.168 112.23C152.538 112.544 152.238 112.085 150.851 111.236C149.056 110.13 146.84 106.182 146.852 104.875C146.852 104.875 150.857 101.518 152.749 99.1607C159.546 90.6931 160.224 85.2367 160.447 82.8605C160.975 77.2406 160.381 73.5758 156.123 71.8282C151.764 70.0366 147.176 72.6705 144.084 80.0066C142.198 84.4886 141.226 89.8634 141.052 94.886C141.003 96.2502 140.931 99.5504 141.604 103.341C141.676 103.762 142.114 106.22 142.985 108.433C144.258 111.664 145.249 113.003 146.852 114.292C148.455 115.58 150.731 116.328 152.587 116.177C154.448 116.027 156.718 114.512 157.162 113.694C157.708 112.707 156.369 112.085 155.168 112.23ZM145.483 93.4151C145.627 88.4301 146.684 83.0491 148.617 79.4219C150.467 75.9582 153.229 75.8639 154.394 76.3983C156.105 77.184 157.12 82.6468 156.045 86.8837C154.67 92.2898 147.699 102.26 146.288 102.084C145.717 101.053 145.423 95.6341 145.489 93.4151H145.483Z" fill="#FFFCEB"/>
<path fill-rule="evenodd" clip-rule="evenodd" d="M234.32 71.8282C229.815 70.0366 225.074 72.6705 221.879 80.0066C219.931 84.4886 218.925 89.8634 218.745 94.886C218.696 96.2502 218.621 99.5504 219.316 103.341C219.391 103.762 219.844 106.22 220.743 108.433C222.059 111.664 223.083 113.003 224.739 114.292C226.396 115.58 228.748 116.328 230.665 116.177C232.588 116.027 234.934 114.512 235.393 113.694C235.958 112.707 234.574 112.085 233.333 112.23C230.615 112.544 230.305 112.085 228.872 111.236C227.016 110.13 224.727 106.182 224.739 104.875C224.739 104.875 228.878 101.518 230.832 99.1607C237.856 90.6931 238.557 85.2367 238.787 82.8605C239.333 77.2406 238.719 73.5758 234.32 71.8282ZM234.239 86.8774C232.818 92.2835 225.614 102.253 224.156 102.077C223.567 101.047 223.263 95.6278 223.331 93.4088C223.48 88.4238 224.572 83.0428 226.57 79.4157C228.481 75.952 231.335 75.8577 232.539 76.392C234.307 77.1778 235.356 82.6405 234.245 86.8774H234.239Z" fill="#FFFCEB"/>
<path fill-rule="evenodd" clip-rule="evenodd" d="M198.906 110.469C198.727 110.326 198.325 110.302 198.035 110.368C196.355 110.726 193.045 111.915 190.695 110.989C180.296 106.908 185.37 91.2121 194.044 94.0502C194.797 94.2952 195.462 94.6836 196.143 94.9046C196.863 95.1317 197.867 95.5619 198.381 94.8508C199.073 93.8949 196.483 90.8357 194.747 90.053C192.844 89.1986 190.611 88.6011 187.229 89.7184C185.375 90.3338 183.511 91.8933 181.876 95.1855C178.873 101.226 179.95 110.529 184.655 114.275C188.914 117.669 194.128 115.685 195.406 114.933C196.801 114.114 197.778 113.146 198.465 112.369C198.906 111.873 199.028 111.575 199.095 111.234C199.185 110.78 199.084 110.619 198.906 110.469Z" fill="#FFFCEB"/>
<path fill-rule="evenodd" clip-rule="evenodd" d="M265.443 114.16C267.576 113.42 270.245 110.944 270.467 110.59C270.652 110.301 270.572 110.063 270.553 110.024C270.479 109.838 270.338 109.786 270.319 109.774C270.27 109.754 270.214 109.748 270.159 109.748C269.986 109.761 269.881 109.883 269.863 109.902C268.235 111.613 266.676 112.082 264.117 113.073C263.223 112.455 258.532 111.896 257.681 111.639C257.539 110.886 257.65 108.97 257.65 108.97C257.749 109.259 267.822 101.805 271.879 93.0656C274.326 87.7921 275.424 81.6826 272.267 76.8464C268.47 71.0327 261.744 71.843 257.841 76.2226C255.357 79.0072 254.395 82.9045 253.834 85.3869C252.114 93.0334 252.065 103.896 252.928 114.166C252.527 114.34 252.312 114.481 252.17 114.578C251.036 115.375 251.418 116.475 251.436 116.539C251.714 117.407 252.552 117.626 252.977 117.716C253.07 117.735 253.162 117.755 253.267 117.767C253.366 118.7 253.471 119.62 253.582 120.526C253.995 123.948 254.402 126.436 254.402 126.443C255.844 134.578 257.299 139.221 257.749 140.636C260.443 149.093 262.884 151.158 264.839 151.691C265.437 151.852 269.351 152.894 271.632 145.916C274.215 138.025 273.679 122.764 267.557 115.98C267.341 115.742 265.665 114.352 265.449 114.147L265.443 114.16ZM259.025 88.3066C259.192 87.3033 259.537 85.1875 260.221 83.3482C260.862 81.6247 262.064 80.5057 262.255 80.3385C263.735 79.0072 265.313 79.0201 265.671 79.033C267.835 79.0908 268.895 80.6536 269.018 80.8851C271.379 85.3226 266.207 97.6445 261.738 102.461C260.554 103.735 258.624 105.394 257.675 106.172C257.626 105.748 257.996 94.5126 259.031 88.3066H259.025ZM266.01 146.128C266.01 146.128 266.004 146.128 265.998 146.122H266.01V146.128ZM266.016 146.148C266.016 146.148 266.022 146.128 266.028 146.122C266.004 146.09 265.788 145.91 265.461 145.395C263.797 142.746 261.997 137.061 261.731 136.225C260.32 131.832 259.401 126.694 259.284 126.031C258.47 121.44 257.934 116.378 257.965 116.34C263.538 116.861 267.551 122.115 268.55 125.903C271.694 137.832 267.496 146.521 266.016 146.154V146.148Z" fill="#FFFCEB"/>
<path fill-rule="evenodd" clip-rule="evenodd" d="M171.815 88.3209C168.109 85.9252 164.936 87.0171 162.372 89.2393C157.467 93.4847 156.738 101.751 157.725 106.857C158.39 110.306 160.519 113.536 163.554 115.206C167.225 117.229 172.561 116.08 175.326 112.425C179.537 106.869 178.568 97.2291 176.255 93.2663C176.255 93.2663 174.575 90.1 171.815 88.3145V88.3209ZM161.546 98.976C162.481 92.6626 166.422 91.6928 167.042 91.635C168.356 91.5129 170.662 91.9818 172.372 94.4095C173.41 95.8867 173.903 97.2933 173.949 99.143C174.219 109.599 159.458 113.087 161.546 98.976Z" fill="#FFFCEB"/>
<path fill-rule="evenodd" clip-rule="evenodd" d="M286.268 90.3591C282.68 88.1397 279.606 89.1525 277.123 91.2093C272.368 95.1479 271.662 102.806 272.621 107.539C273.27 110.74 275.329 113.728 278.269 115.278C281.828 117.154 286.99 116.085 289.67 112.703C293.749 107.551 292.812 98.6113 290.573 94.9416C290.573 94.9416 288.948 92.0095 286.268 90.3528V90.3591ZM276.328 100.237C277.231 94.3852 281.055 93.4849 281.653 93.4349C282.928 93.3224 285.162 93.7537 286.815 96.0043C287.825 97.3735 288.299 98.6801 288.344 100.393C288.609 110.083 274.308 113.322 276.328 100.237Z" fill="#FFFCEB"/>
<path fill-rule="evenodd" clip-rule="evenodd" d="M308.517 92.3998C304.582 90.3557 301.209 91.2885 298.487 93.1829C293.271 96.8105 292.498 103.864 293.549 108.223C294.261 111.171 296.519 113.924 299.743 115.352C303.647 117.079 309.309 116.095 312.248 112.979C316.721 108.235 315.694 100.001 313.238 96.6205C313.238 96.6205 311.456 93.92 308.517 92.3941V92.3998ZM297.608 101.498C298.598 96.1081 302.793 95.2789 303.449 95.2328C304.848 95.1292 307.298 95.5265 309.111 97.5994C310.218 98.8605 310.738 100.064 310.787 101.642C311.078 110.567 295.393 113.549 297.608 101.498Z" fill="#FFFCEB"/>
<path fill-rule="evenodd" clip-rule="evenodd" d="M101.905 78.0345C86.4433 70.1183 69.3843 66.9015 52.367 66.9402C52.3848 66.5018 52.4087 66.0699 52.4444 65.6509C52.4444 61.3124 59.7699 51.4106 65.1165 50.16C72.1559 48.6966 79.7675 60.4872 81.8299 58.7596C83.4988 57.1866 82.2769 54.0665 81.8299 51.5395C80.4172 45.8022 81.1563 37.1639 81.6868 34.4822C81.8656 33.1413 82.563 29.2154 85.1976 23.9486C86.5923 21.0929 92.5112 14.0533 93.447 12.4546C96.7312 6.8397 96.606 3.89367 96.606 3.89367C96.606 0.960524 95.3722 0 93.447 0C86.6043 0 79.696 4.04838 74.8382 7.27807C73.6043 8.09677 64.0496 14.9171 57.9579 17.2443C52.2597 19.3265 40.7916 20.4353 37.2749 22.6078C33.8059 24.0582 31.8329 26.6304 34.0443 28.7384C36.9947 31.5619 46.4184 33.5732 47.8608 37.3573C48.5999 38.3758 47.9979 41.9665 47.8608 43.8296C47.4912 46.9239 46.4124 50.3985 45.6912 53.654C44.6719 58.0247 43.9924 62.6339 43.8434 67.2367C40.5651 67.443 37.2928 67.7653 34.0443 68.1972C24.275 69.725 13.7069 72.7291 6.21456 80.3681L6.22648 80.3488L6.21456 80.3359C-2.79181 89.6704 -1.53414 102.112 6.92982 111.305C11.7042 116.604 17.6647 120.175 23.8518 122.612L24.8114 119.872C11.8771 114.528 -4.62765 97.9412 9.29615 83.9266C18.4456 75.5462 31.666 73.5865 43.9924 73.3028C44.1891 75.6687 44.5706 78.0087 45.1428 80.3101C35.7192 81.0837 26.4983 83.1982 19.3814 86.892C11.9665 90.6696 8.61069 99.1725 15.3997 106.025C27.589 117.287 58.3454 118.989 74.1229 118.725C85.138 118.28 104.277 117.435 112.544 108.791C123.953 95.7236 113.749 84.0233 101.905 78.041V78.0345ZM42.687 26.6239C46.3468 26.6239 55.1446 25.6634 55.1446 25.6634C58.7507 25.225 64.6576 22.5755 68.5081 20.2999C70.7314 18.901 75.9766 15.7036 77.7648 14.5497C79.547 13.3958 83.4273 11.2878 88.613 9.05085C88.2673 9.39896 87.9394 9.74706 87.6176 10.1081C84.2856 13.9308 80.6974 17.3797 78.337 22.2016C76.6204 25.831 75.917 27.939 75.0527 33.2058C74.1825 38.4596 75.9051 46.2212 77.282 51.546C77.0138 51.3075 73.8487 47.9424 73.5626 47.7103C68.6452 43.2107 64.1688 43.7586 59.1739 48.5742C57.6361 50.0117 56.3188 51.6685 55.1446 53.4283V53.409C55.3532 52.7837 55.5797 52.1584 55.8002 51.5395C57.2069 47.4331 58.6911 43.5072 57.946 38.4661C57.1175 32.8963 47.1634 29.022 42.687 26.6304V26.6239ZM107.377 103.337C105.744 105.013 103.663 105.909 101.452 106.747C92.684 109.745 83.2246 110.331 73.962 110.544C67.6676 110.621 61.3495 110.344 55.079 109.725C44.9699 108.565 28.5189 106.612 20.6033 99.8171C19.888 99.0822 19.2145 98.2829 19.5423 97.3353C20.9311 94.9436 24.275 93.6994 26.8261 92.6487L26.838 92.6358C33.5138 90.3795 40.8631 89.0515 48.3019 88.6196C53.9525 99.1532 65.7841 103.762 76.5012 103.131C80.9298 102.821 90.115 101.912 91.4502 96.0524C91.8018 94.8276 91.3012 92.7454 90.5799 91.8944C90.0793 91.2111 89.5368 90.56 88.9825 89.9669C84.8578 85.7445 79.3503 83.643 74.1944 82.2699C68.222 80.7936 61.1111 80.0007 53.7856 79.9814C53.118 77.8605 52.6948 75.6171 52.4802 73.3351C52.8378 73.3415 53.1955 73.3479 53.5531 73.3544C66.0941 73.7283 78.635 75.8169 90.4071 80.6067C96.8623 83.3013 108.682 88.5165 110.345 96.1556C110.762 98.8502 109.135 101.351 107.389 103.337H107.377ZM58.9593 88.639C63.5668 88.9226 68.0849 89.5673 72.3705 90.5665H72.3765C75.2614 91.3916 78.1641 92.2941 80.6497 93.8542C73.813 95.3755 65.5934 93.8542 60.36 89.8316C59.8653 89.4512 59.4004 89.0515 58.9593 88.639Z" fill="#FFFCEB"/>
<path fill-rule="evenodd" clip-rule="evenodd" d="M195.162 59.6847C198.377 64.2148 204.042 62.5974 206.83 61.7112C206.959 61.6678 213.248 59.1703 214.543 58.4452C214.881 58.2593 214.864 57.7325 214.601 57.3731C214.438 57.15 214.216 57.1252 214.176 57.119C214.094 57.1066 213.913 57.15 213.61 57.2492C203.948 60.5027 199.421 59.0216 198.196 56.4002C197.793 55.5325 197.683 54.3984 197.823 53.1466C198.155 53.2768 198.528 53.4193 198.925 53.5556C199.059 53.6052 199.952 53.9151 200.629 54.0886C203.674 54.8818 206.55 54.3179 208.54 53.3325C208.837 53.1838 211.008 52.0683 211.609 49.0812C211.702 48.604 211.848 47.7117 211.871 46.3483C211.9 44.4953 211.585 42.8097 211.334 41.8863C210.955 40.5105 210.669 39.7916 210.22 38.9674C209.812 38.2237 209.088 37.4305 208.627 36.9285C208.522 36.8108 208.003 36.2468 207.163 35.7386C204.858 34.3629 201.691 34.4992 198.552 38.0812C198.307 38.3601 197.058 39.7854 195.915 42.0722C193.033 47.8232 192.07 55.3218 195.162 59.6785V59.6847ZM204.287 40.2316C205.955 40.0643 207.7 41.0744 208.435 43.9685C209.263 47.2097 208.015 49.1742 206.947 49.7505C203.802 51.4486 199.124 49.9798 198.324 49.8311C199.089 43.6711 201.941 40.4671 204.281 40.2316H204.287ZM194.555 51.0148C194.555 51.0148 194.55 51.0148 194.544 51.0148C194.544 51.0148 194.55 51.0148 194.555 51.0148Z" fill="#FFFCEB"/>
<path fill-rule="evenodd" clip-rule="evenodd" d="M137.25 52.6685C137.25 52.6685 142.568 60.3848 147.937 63.8736C148.567 64.2848 149.002 64.1563 149.208 64.0599C149.626 63.8672 149.603 62.7171 149.179 61.8626C148.561 60.6097 147.245 59.1834 146.014 57.8277C144.154 55.7782 139.7 50.6382 139.826 50.7539C140.65 51.5313 147.279 51.4542 148.401 47.2651C150.233 40.4675 142.786 31.2542 135.854 36.4584C132.888 38.6814 132.345 42.8512 132.585 47.9911C132.659 49.5267 132.505 60.3334 133.839 62.4858C135.224 64.7217 137.428 64.1499 138.229 62.3766C138.698 61.3486 138.67 60.4234 137.926 57.0824C137.788 56.4528 137.388 53.2917 137.25 52.6556V52.6685ZM136.518 47.0724C136.014 40.988 138.212 39.915 139.923 39.6965C142.104 39.4203 146.168 42.5042 145.127 45.903C144.239 48.8007 136.638 47.7855 136.581 47.8048C136.546 47.4707 136.529 47.2394 136.512 47.0724H136.518Z" fill="#FFFCEB"/>
</svg>
